<svg xmlns="http://www.w3.org/2000/svg" xmlns:xlink="http://www.w3.org/1999/xlink" width="128" height="128" enable-background="new 0 0 128 128"><g><g><radialGradient id="SVGID_1_" cx="64.5" cy="24.75" r="80.285" gradientUnits="userSpaceOnUse"><stop offset=".057" stop-color="#EEE"/><stop offset=".337" stop-color="#EAEAEA"/><stop offset=".596" stop-color="#DFDFDF"/><stop offset=".847" stop-color="#CCC"/><stop offset="1" stop-color="#BDBDBD"/></radialGradient><path fill="url(#SVGID_1_)" d="M124,124H4V24c0-2.21,1.79-4,4-4h112c2.21,0,4,1.79,4,4V124z"/></g><rect width="120" height="24" x="4" y="100" fill="#9E9E9E"/><linearGradient id="SVGID_2_" x1="108" x2="124" y1="72" y2="72" gradientUnits="userSpaceOnUse"><stop offset="0" stop-color="#757575"/><stop offset=".103" stop-color="#757575" stop-opacity=".897"/><stop offset="1" stop-color="#757575" stop-opacity="0"/></linearGradient><rect width="16" height="104" x="108" y="20" fill="url(#SVGID_2_)"/><linearGradient id="SVGID_3_" x1="17.667" x2="33.667" y1="72" y2="72" gradientTransform="matrix(-1 0 0 1 37.6667 0)" gradientUnits="userSpaceOnUse"><stop offset="0" stop-color="#757575"/><stop offset=".103" stop-color="#757575" stop-opacity=".897"/><stop offset="1" stop-color="#757575" stop-opacity="0"/></linearGradient><polygon fill="url(#SVGID_3_)" points="4 124 20 124 20 20 4 20"/><path fill="#4FC3F7" d="M114,48h-8c-1.1,0-2-0.9-2-2v-8c0-1.1,0.9-2,2-2h8c1.1,0,2,0.9,2,2v8C116,47.1,115.1,48,114,48z"/><path fill="#4FC3F7" d="M114,68h-8c-1.1,0-2-0.9-2-2v-8c0-1.1,0.9-2,2-2h8c1.1,0,2,0.9,2,2v8C116,67.1,115.1,68,114,68z"/><path fill="#4FC3F7" d="M114,88h-8c-1.1,0-2-0.9-2-2v-8c0-1.1,0.9-2,2-2h8c1.1,0,2,0.9,2,2v8C116,87.1,115.1,88,114,88z"/><path fill="#4FC3F7" d="M22,48h-8c-1.1,0-2-0.9-2-2v-8c0-1.1,0.9-2,2-2h8c1.1,0,2,0.9,2,2v8C24,47.1,23.1,48,22,48z"/><path fill="#4FC3F7" d="M22,68h-8c-1.1,0-2-0.9-2-2v-8c0-1.1,0.9-2,2-2h8c1.1,0,2,0.9,2,2v8C24,67.1,23.1,68,22,68z"/><path fill="#4FC3F7" d="M22,88h-8c-1.1,0-2-0.9-2-2v-8c0-1.1,0.9-2,2-2h8c1.1,0,2,0.9,2,2v8C24,87.1,23.1,88,22,88z"/><g opacity=".2"><path fill="#424242" d="M120,23c0.55,0,1,0.45,1,1v97H7V24c0-0.55,0.45-1,1-1H120 M120,20H8c-2.21,0-4,1.79-4,4v100h120 V24C124,21.79,122.21,20,120,20L120,20z"/></g><g><radialGradient id="SVGID_4_" cx="64" cy="15.75" r="107.476" gradientUnits="userSpaceOnUse"><stop offset=".057" stop-color="#EEE"/><stop offset=".337" stop-color="#EAEAEA"/><stop offset=".596" stop-color="#DFDFDF"/><stop offset=".847" stop-color="#CCC"/><stop offset="1" stop-color="#BDBDBD"/></radialGradient><path fill="url(#SVGID_4_)" d="M108,124H20V8c0-2.21,1.79-4,4-4h80c2.21,0,4,1.79,4,4V124z"/></g><g><path fill="#9E9E9E" d="M98,104.25H30c-1.1,0-2-0.9-2-2l0,0h72l0,0C100,103.35,99.1,104.25,98,104.25z"/><path fill="#EEE" d="M100,102.75H28v-2c0-0.55,0.45-1,1-1h70c0.55,0,1,0.45,1,1V102.75z"/></g><path fill="#4FC3F7" d="M44,92h-8c-1.1,0-2-0.9-2-2v-8c0-1.1,0.9-2,2-2h8c1.1,0,2,0.9,2,2v8C46,91.1,45.1,92,44,92z"/><path fill="#4FC3F7" d="M68,92h-8c-1.1,0-2-0.9-2-2v-8c0-1.1,0.9-2,2-2h8c1.1,0,2,0.9,2,2v8C70,91.1,69.1,92,68,92z"/><path fill="#4FC3F7" d="M92,92h-8c-1.1,0-2-0.9-2-2v-8c0-1.1,0.9-2,2-2h8c1.1,0,2,0.9,2,2v8C94,91.1,93.1,92,92,92z"/><path fill="#4FC3F7" d="M44,72h-8c-1.1,0-2-0.9-2-2v-8c0-1.1,0.9-2,2-2h8c1.1,0,2,0.9,2,2v8C46,71.1,45.1,72,44,72z"/><path fill="#4FC3F7" d="M68,72h-8c-1.1,0-2-0.9-2-2v-8c0-1.1,0.9-2,2-2h8c1.1,0,2,0.9,2,2v8C70,71.1,69.1,72,68,72z"/><path fill="#4FC3F7" d="M92,72h-8c-1.1,0-2-0.9-2-2v-8c0-1.1,0.9-2,2-2h8c1.1,0,2,0.9,2,2v8C94,71.1,93.1,72,92,72z"/><path fill="#4FC3F7" d="M44,52h-8c-1.1,0-2-0.9-2-2v-8c0-1.1,0.9-2,2-2h8c1.1,0,2,0.9,2,2v8C46,51.1,45.1,52,44,52z"/><path fill="#4FC3F7" d="M68,52h-8c-1.1,0-2-0.9-2-2v-8c0-1.1,0.9-2,2-2h8c1.1,0,2,0.9,2,2v8C70,51.1,69.1,52,68,52z"/><path fill="#4FC3F7" d="M92,52h-8c-1.1,0-2-0.9-2-2v-8c0-1.1,0.9-2,2-2h8c1.1,0,2,0.9,2,2v8C94,51.1,93.1,52,92,52z"/><path fill="#4FC3F7" d="M44,32h-8c-1.1,0-2-0.9-2-2v-8c0-1.1,0.9-2,2-2h8c1.1,0,2,0.9,2,2v8C46,31.1,45.1,32,44,32z"/><path fill="#4FC3F7" d="M68,32h-8c-1.1,0-2-0.9-2-2v-8c0-1.1,0.9-2,2-2h8c1.1,0,2,0.9,2,2v8C70,31.1,69.1,32,68,32z"/><path fill="#4FC3F7" d="M92,32h-8c-1.1,0-2-0.9-2-2v-8c0-1.1,0.9-2,2-2h8c1.1,0,2,0.9,2,2v8C94,31.1,93.1,32,92,32z"/><g><g><rect width="16" height="20" x="32" y="104" fill="#4FC3F7"/><g opacity=".2"><rect width="2" height="20" x="32" y="104" fill="#424242"/><rect width="2" height="20" x="46" y="104" fill="#424242"/></g></g><g><rect width="16" height="20" x="56" y="104" fill="#4FC3F7"/><g opacity=".2"><rect width="2" height="20" x="56" y="104" fill="#424242"/><rect width="2" height="20" x="70" y="104" fill="#424242"/></g></g><g><rect width="16" height="20" x="80" y="104" fill="#4FC3F7"/><g opacity=".2"><rect width="2" height="20" x="80" y="104" fill="#424242"/><rect width="2" height="20" x="94" y="104" fill="#424242"/></g></g></g><g opacity=".2"><path fill="#424242" d="M104,7c0.55,0,1,0.45,1,1v113H23V8c0-0.55,0.45-1,1-1H104 M104,4H24c-2.21,0-4,1.79-4,4v116h88V8 C108,5.79,106.21,4,104,4L104,4z"/></g></g></svg>