<svg xmlns="http://www.w3.org/2000/svg" xmlns:xlink="http://www.w3.org/1999/xlink" width="128" height="128" enable-background="new 0 0 128 128"><g><radialGradient id="SVGID_1_" cx="63.333" cy="54.833" r="32.002" gradientTransform="matrix(4.499940e-11 1 -2.9061 1.307724e-10 222.6841 -8.5)" gradientUnits="userSpaceOnUse"><stop offset="0" stop-color="#B3E5FC"/><stop offset="1" stop-color="#4FC3F7"/></radialGradient><rect width="112" height="48" x="8" y="40" fill="url(#SVGID_1_)"/><radialGradient id="SVGID_2_" cx="87.917" cy="43.667" r="40.84" gradientUnits="userSpaceOnUse"><stop offset="0" stop-color="#616161"/><stop offset="1" stop-color="#212121"/></radialGradient><circle cx="88" cy="64" r="20" fill="url(#SVGID_2_)"/><radialGradient id="SVGID_3_" cx="88" cy="52.833" r="21.412" gradientUnits="userSpaceOnUse"><stop offset="0" stop-color="#EEE"/><stop offset="1" stop-color="#BDBDBD"/></radialGradient><circle cx="88" cy="64" r="10" fill="url(#SVGID_3_)"/><circle cx="88" cy="64" r="16" fill="none" stroke="#EEE" stroke-miterlimit="10" stroke-width=".941" opacity=".2"/><circle cx="88" cy="64" r="13" fill="none" stroke="#EEE" stroke-miterlimit="10" opacity=".2"/><radialGradient id="SVGID_4_" cx="39.833" cy="43.75" r="40.847" gradientUnits="userSpaceOnUse"><stop offset="0" stop-color="#616161"/><stop offset="1" stop-color="#212121"/></radialGradient><circle cx="40" cy="64" r="20" fill="url(#SVGID_4_)"/><radialGradient id="SVGID_5_" cx="39.667" cy="53.333" r="21.006" gradientUnits="userSpaceOnUse"><stop offset="0" stop-color="#EEE"/><stop offset="1" stop-color="#BDBDBD"/></radialGradient><circle cx="40" cy="64" r="10" fill="url(#SVGID_5_)"/><circle cx="40" cy="64" r="16" fill="none" stroke="#EEE" stroke-miterlimit="10" stroke-width=".941" opacity=".2"/><circle cx="40" cy="64" r="13" fill="none" stroke="#EEE" stroke-miterlimit="10" opacity=".2"/><g opacity=".2"><path fill="#424242" d="M88,55c4.96,0,9,4.04,9,9s-4.04,9-9,9s-9-4.04-9-9S83.04,55,88,55 M88,54c-5.52,0-10,4.48-10,10 s4.48,10,10,10s10-4.48,10-10S93.52,54,88,54L88,54z"/></g><g opacity=".2"><path fill="#424242" d="M40,55c4.96,0,9,4.04,9,9s-4.04,9-9,9s-9-4.04-9-9S35.04,55,40,55 M40,54c-5.52,0-10,4.48-10,10 s4.48,10,10,10s10-4.48,10-10S45.52,54,40,54L40,54z"/></g><g opacity=".2"><path fill="#424242" d="M40,46c9.93,0,18,8.07,18,18s-8.07,18-18,18s-18-8.07-18-18S30.07,46,40,46 M40,44 c-11.05,0-20,8.95-20,20s8.95,20,20,20s20-8.95,20-20S51.05,44,40,44L40,44z"/></g><g opacity=".2"><path fill="#424242" d="M88,46c9.93,0,18,8.07,18,18s-8.07,18-18,18s-18-8.07-18-18S78.07,46,88,46 M88,44 c-11.05,0-20,8.95-20,20s8.95,20,20,20s20-8.95,20-20S99.05,44,88,44L88,44z"/></g><radialGradient id="SVGID_6_" cx="64.5" cy="28.75" r="87.882" gradientUnits="userSpaceOnUse"><stop offset="0" stop-color="#616161"/><stop offset="1" stop-color="#212121"/></radialGradient><path fill="url(#SVGID_6_)" d="M4,32v64c0,2.21,1.79,4,4,4h112c2.21,0,4-1.79,4-4V32c0-2.21-1.79-4-4-4H8 C5.79,28,4,29.79,4,32z M40,78c0,1.1-0.9,2-2,2H20c-2.21,0-8-7.16-8-16c0-8.84,5.79-16,8-16h18c1.1,0,2,0.9,2,2V78z M108,80H90 c-1.1,0-2-0.9-2-2V50c0-1.1,0.9-2,2-2h18c2.21,0,8,7.16,8,16S110.21,80,108,80z"/><rect width="104" height="2" x="12" y="38" fill="#424242" opacity=".2"/><rect width="104" height="2" x="12" y="42" fill="#424242" opacity=".2"/><rect width="104" height="2" x="12" y="34" fill="#424242" opacity=".2"/><rect width="104" height="2" x="12" y="88" fill="#424242" opacity=".2"/><rect width="104" height="2" x="12" y="92" fill="#424242" opacity=".2"/><rect width="104" height="2" x="12" y="84" fill="#424242" opacity=".2"/><g opacity=".2"><path fill="#424242" d="M82,48c1.1,0,2,0.9,2,2v6v22c0,1.1-0.9,2-2,2H46c-1.1,0-2-0.9-2-2V56v-6c0-1.1,0.9-2,2-2H82 M82,46 H46c-2.21,0-4,1.79-4,4v6v22c0,2.21,1.79,4,4,4h36c2.21,0,4-1.79,4-4V56v-6C86,47.79,84.21,46,82,46L82,46z"/></g><g opacity=".2"><path fill="#EEE" d="M120,31c0.55,0,1,0.45,1,1v64c0,0.55-0.45,1-1,1H8c-0.55,0-1-0.45-1-1V32c0-0.55,0.45-1,1-1H120 M120,28H8c-2.21,0-4,1.79-4,4v64c0,2.21,1.79,4,4,4h112c2.21,0,4-1.79,4-4V32C124,29.79,122.21,28,120,28L120,28z"/></g><g><radialGradient id="SVGID_7_" cx="63.5" cy="48.5" r="21.843" gradientUnits="userSpaceOnUse"><stop offset="0" stop-color="#EF5350"/><stop offset="1" stop-color="#E53935"/></radialGradient><path fill="url(#SVGID_7_)" d="M84,50c0-1.1-0.9-2-2-2H46c-1.1,0-2,0.9-2,2v6h40V50z"/><radialGradient id="SVGID_8_" cx="63.333" cy="55.167" r="28.404" gradientUnits="userSpaceOnUse"><stop offset="0" stop-color="#FAFAFA"/><stop offset="1" stop-color="#EEE"/></radialGradient><path fill="url(#SVGID_8_)" d="M44,56v22c0,1.1,0.9,2,2,2h36c1.1,0,2-0.9,2-2V56H44z"/></g><path fill="#BDBDBD" d="M77,66H51c-0.55,0-1-0.45-1-1v-2c0-0.55,0.45-1,1-1h26c0.55,0,1,0.45,1,1v2C78,65.55,77.55,66,77,66 z"/><path fill="#BDBDBD" d="M77,74H51c-0.55,0-1-0.45-1-1v-2c0-0.55,0.45-1,1-1h26c0.55,0,1,0.45,1,1v2C78,73.55,77.55,74,77,74 z"/><g opacity=".2"><path fill="#424242" d="M108,48c2.21,0,8,7.16,8,16s-5.79,16-8,16H90c-1.1,0-2-0.9-2-2V50c0-1.1,0.9-2,2-2H108 M38,48 c1.1,0,2,0.9,2,2v28c0,1.1-0.9,2-2,2H20c-2.21,0-8-7.16-8-16c0-8.84,5.79-16,8-16H38 M108,46H90c-2.21,0-4,1.79-4,4v28 c0,2.21,1.79,4,4,4h18c3.77,0,10-8.41,10-18S111.77,46,108,46L108,46z M38,46H20c-3.77,0-10,8.41-10,18s6.23,18,10,18h18 c2.21,0,4-1.79,4-4V50C42,47.79,40.21,46,38,46L38,46z"/></g></g></svg>