<svg xmlns="http://www.w3.org/2000/svg" xmlns:xlink="http://www.w3.org/1999/xlink" width="128" height="128" enable-background="new 0 0 128 128"><g id="图层_3"><g><linearGradient id="SVGID_1_" x1="64" x2="64" y1="19.751" y2="111.985" gradientUnits="userSpaceOnUse"><stop offset=".321" stop-color="#ECEFF1"/><stop offset="1" stop-color="#B0BEC5"/></linearGradient><circle cx="64" cy="64" r="60" fill="url(#SVGID_1_)"/><path fill="#424242" d="M63.8,63.98h0.4c2.1,0,3.8-1.7,3.8-3.8v-32.4c0-2.1-1.7-3.8-3.8-3.8h-0.4c-2.1,0-3.8,1.7-3.8,3.8 l0,32.4C60,62.28,61.7,63.98,63.8,63.98z"/><path fill="#424242" d="M63.78,63.81l0.19,0.35c1.01,1.84,3.32,2.52,5.16,1.51l18.94-10.36c1.84-1.01,2.52-3.32,1.51-5.16 l-0.19-0.35c-1.01-1.84-3.32-2.52-5.16-1.51L65.29,58.65C63.45,59.66,62.77,61.97,63.78,63.81z"/><circle cx="64" cy="64" r="7" fill="#424242"/><circle cx="64" cy="64" r="3" fill="#FFF"/><g><circle cx="15.89" cy="64.13" r="4" fill="#757575"/><circle cx="63.89" cy="16.13" r="4" fill="#757575"/><circle cx="63.89" cy="112.13" r="4" fill="#757575"/><circle cx="111.89" cy="64.13" r="4" fill="#757575"/></g><g opacity=".2"><path fill="#424242" d="M64,8c30.88,0,56,25.12,56,56s-25.12,56-56,56S8,94.88,8,64S33.12,8,64,8 M64,4 C30.86,4,4,30.86,4,64s26.86,60,60,60s60-26.86,60-60S97.14,4,64,4L64,4z"/></g></g></g><g id="Layer_2_x5F_复制" display="none"><g display="inline" opacity=".3"><g opacity=".6"><circle cx="64" cy="64" r="28" fill="none" stroke="#000" stroke-miterlimit="10" stroke-width=".263" opacity=".61"/><line x1="84" x2="84" y1="0" y2="128" fill="none" stroke="#000" stroke-miterlimit="10" stroke-width=".25" opacity=".61"/><line x1="44" x2="44" y1="0" y2="128" fill="none" stroke="#000" stroke-miterlimit="10" stroke-width=".25" opacity=".61"/><line x1="64" x2="64" y1="0" y2="128" fill="none" stroke="#000" stroke-miterlimit="10" stroke-width=".25" opacity=".61"/><line x1="128" x2="0" y1="64" y2="64" fill="none" stroke="#000" stroke-miterlimit="10" stroke-width=".25" opacity=".61"/><line x1="128" x2="0" y1="44" y2="44" fill="none" stroke="#000" stroke-miterlimit="10" stroke-width=".25" opacity=".61"/><line x1="128" x2="0" y1="83.75" y2="83.75" fill="none" stroke="#000" stroke-miterlimit="10" stroke-width=".25" opacity=".61"/><line x1="128" x2="0" y1="128" y2="0" fill="none" stroke="#000" stroke-miterlimit="10" stroke-width=".25" opacity=".61"/><line x1="0" x2="128" y1="128" y2="0" fill="none" stroke="#000" stroke-miterlimit="10" stroke-width=".25" opacity=".61"/><g opacity=".61"><path d="M64,4.26c32.94,0,59.74,26.8,59.74,59.74S96.94,123.74,64,123.74S4.26,96.94,4.26,64S31.06,4.26,64,4.26 M64,4 C30.86,4,4,30.86,4,64c0,33.14,26.86,60,60,60c33.14,0,60-26.86,60-60C124,30.86,97.14,4,64,4L64,4z"/></g><path fill="none" stroke="#000" stroke-miterlimit="10" stroke-width=".258" d="M107.97,115.97H20.03 c-4.42,0-8.03-3.61-8.03-8.03V20.03c0-4.42,3.61-8.03,8.03-8.03h87.94c4.42,0,8.03,3.61,8.03,8.03v87.91 C116,112.36,112.39,115.97,107.97,115.97z" opacity=".61"/><path fill="none" stroke="#000" stroke-miterlimit="10" stroke-width=".257" d="M99.75,124H28 c-4.4,0-8-3.6-8-8V12c0-4.4,3.6-8,8-8h71.75c4.4,0,8,3.6,8,8v104C107.75,120.4,104.15,124,99.75,124z" opacity=".61"/><path fill="none" stroke="#000" stroke-miterlimit="10" stroke-width=".263" d="M113.77,108H14.23 C8.6,108,4,103.4,4,97.77V30.28c0-5.63,4.6-10.23,10.23-10.23h99.54c5.63,0,10.23,4.6,10.23,10.23v67.48 C124,103.4,119.4,108,113.77,108z" opacity=".61"/></g><g><g opacity=".2"><defs><rect id="SVGID_2_" width="128" height="128" opacity=".2"/></defs><clipPath id="SVGID_3_"><use overflow="visible" xlink:href="#SVGID_2_"/></clipPath><g clip-path="url(#SVGID_3_)"><g><line x1="-28" x2="-28" y1="160" y2="-32" fill="none" stroke="#000" stroke-miterlimit="10" stroke-width=".25"/><line x1="-24" x2="-24" y1="160" y2="-32" fill="none" stroke="#000" stroke-miterlimit="10" stroke-width=".25"/><line x1="-20" x2="-20" y1="160" y2="-32" fill="none" stroke="#000" stroke-miterlimit="10" stroke-width=".25"/><line x1="-16" x2="-16" y1="160" y2="-32" fill="none" stroke="#000" stroke-miterlimit="10" stroke-width=".25"/><line x1="-12" x2="-12" y1="160" y2="-32" fill="none" stroke="#000" stroke-miterlimit="10" stroke-width=".25"/><line x1="-8" x2="-8" y1="160" y2="-32" fill="none" stroke="#000" stroke-miterlimit="10" stroke-width=".25"/><line x1="-4" x2="-4" y1="160" y2="-32" fill="none" stroke="#000" stroke-miterlimit="10" stroke-width=".25"/><line x1="0" x2="0" y1="160" y2="-32" fill="none" stroke="#000" stroke-miterlimit="10" stroke-width=".25"/><line x1="4" x2="4" y1="160" y2="-32" fill="none" stroke="#000" stroke-miterlimit="10" stroke-width=".25"/><line x1="8" x2="8" y1="160" y2="-32" fill="none" stroke="#000" stroke-miterlimit="10" stroke-width=".25"/><line x1="12" x2="12" y1="160" y2="-32" fill="none" stroke="#000" stroke-miterlimit="10" stroke-width=".25"/><line x1="16" x2="16" y1="160" y2="-32" fill="none" stroke="#000" stroke-miterlimit="10" stroke-width=".25"/><line x1="20" x2="20" y1="160" y2="-32" fill="none" stroke="#000" stroke-miterlimit="10" stroke-width=".25"/><line x1="24" x2="24" y1="160" y2="-32" fill="none" stroke="#000" stroke-miterlimit="10" stroke-width=".25"/><line x1="28" x2="28" y1="160" y2="-32" fill="none" stroke="#000" stroke-miterlimit="10" stroke-width=".25"/><line x1="32" x2="32" y1="160" y2="-32" fill="none" stroke="#000" stroke-miterlimit="10" stroke-width=".25"/><line x1="36" x2="36" y1="160" y2="-32" fill="none" stroke="#000" stroke-miterlimit="10" stroke-width=".25"/><line x1="40" x2="40" y1="160" y2="-32" fill="none" stroke="#000" stroke-miterlimit="10" stroke-width=".25"/><line x1="44" x2="44" y1="160" y2="-32" fill="none" stroke="#000" stroke-miterlimit="10" stroke-width=".25"/><line x1="48" x2="48" y1="160" y2="-32" fill="none" stroke="#000" stroke-miterlimit="10" stroke-width=".25"/><line x1="52" x2="52" y1="160" y2="-32" fill="none" stroke="#000" stroke-miterlimit="10" stroke-width=".25"/><line x1="56" x2="56" y1="160" y2="-32" fill="none" stroke="#000" stroke-miterlimit="10" stroke-width=".25"/><line x1="60" x2="60" y1="160" y2="-32" fill="none" stroke="#000" stroke-miterlimit="10" stroke-width=".25"/><line x1="64" x2="64" y1="160" y2="-32" fill="none" stroke="#000" stroke-miterlimit="10" stroke-width=".25"/><line x1="68" x2="68" y1="160" y2="-32" fill="none" stroke="#000" stroke-miterlimit="10" stroke-width=".25"/><line x1="72" x2="72" y1="160" y2="-32" fill="none" stroke="#000" stroke-miterlimit="10" stroke-width=".25"/><line x1="76" x2="76" y1="160" y2="-32" fill="none" stroke="#000" stroke-miterlimit="10" stroke-width=".25"/><line x1="80" x2="80" y1="160" y2="-32" fill="none" stroke="#000" stroke-miterlimit="10" stroke-width=".25"/><line x1="84" x2="84" y1="160" y2="-32" fill="none" stroke="#000" stroke-miterlimit="10" stroke-width=".25"/><line x1="88" x2="88" y1="160" y2="-32" fill="none" stroke="#000" stroke-miterlimit="10" stroke-width=".25"/><line x1="92" x2="92" y1="160" y2="-32" fill="none" stroke="#000" stroke-miterlimit="10" stroke-width=".25"/><line x1="96" x2="96" y1="160" y2="-32" fill="none" stroke="#000" stroke-miterlimit="10" stroke-width=".25"/><line x1="100" x2="100" y1="160" y2="-32" fill="none" stroke="#000" stroke-miterlimit="10" stroke-width=".25"/><line x1="104" x2="104" y1="160" y2="-32" fill="none" stroke="#000" stroke-miterlimit="10" stroke-width=".25"/><line x1="108" x2="108" y1="160" y2="-32" fill="none" stroke="#000" stroke-miterlimit="10" stroke-width=".25"/><line x1="112" x2="112" y1="160" y2="-32" fill="none" stroke="#000" stroke-miterlimit="10" stroke-width=".25"/><line x1="116" x2="116" y1="160" y2="-32" fill="none" stroke="#000" stroke-miterlimit="10" stroke-width=".25"/><line x1="120" x2="120" y1="160" y2="-32" fill="none" stroke="#000" stroke-miterlimit="10" stroke-width=".25"/><line x1="124" x2="124" y1="160" y2="-32" fill="none" stroke="#000" stroke-miterlimit="10" stroke-width=".25"/><line x1="128" x2="128" y1="160" y2="-32" fill="none" stroke="#000" stroke-miterlimit="10" stroke-width=".25"/><line x1="132" x2="132" y1="160" y2="-32" fill="none" stroke="#000" stroke-miterlimit="10" stroke-width=".25"/><line x1="136" x2="136" y1="160" y2="-32" fill="none" stroke="#000" stroke-miterlimit="10" stroke-width=".25"/><line x1="137" x2="137" y1="166.05" y2="-25.95" fill="none" stroke="#000" stroke-miterlimit="10" stroke-width=".25"/><line x1="144" x2="144" y1="160" y2="-32" fill="none" stroke="#000" stroke-miterlimit="10" stroke-width=".25"/><line x1="148" x2="148" y1="160" y2="-32" fill="none" stroke="#000" stroke-miterlimit="10" stroke-width=".25"/><line x1="152" x2="152" y1="160" y2="-32" fill="none" stroke="#000" stroke-miterlimit="10" stroke-width=".25"/><line x1="156" x2="156" y1="160" y2="-32" fill="none" stroke="#000" stroke-miterlimit="10" stroke-width=".25"/></g><g><line x1="-32" x2="160" y1="-28" y2="-28" fill="none" stroke="#000" stroke-miterlimit="10" stroke-width=".25"/><line x1="-32" x2="160" y1="-24" y2="-24" fill="none" stroke="#000" stroke-miterlimit="10" stroke-width=".25"/><line x1="-32" x2="160" y1="-20" y2="-20" fill="none" stroke="#000" stroke-miterlimit="10" stroke-width=".25"/><line x1="-32" x2="160" y1="-16" y2="-16" fill="none" stroke="#000" stroke-miterlimit="10" stroke-width=".25"/><line x1="-32" x2="160" y1="-12" y2="-12" fill="none" stroke="#000" stroke-miterlimit="10" stroke-width=".25"/><line x1="-32" x2="160" y1="-8" y2="-8" fill="none" stroke="#000" stroke-miterlimit="10" stroke-width=".25"/><line x1="-32" x2="160" y1="-4" y2="-4" fill="none" stroke="#000" stroke-miterlimit="10" stroke-width=".25"/><line x1="-32" x2="160" y1="0" y2="0" fill="none" stroke="#000" stroke-miterlimit="10" stroke-width=".25"/><line x1="-32" x2="160" y1="4" y2="4" fill="none" stroke="#000" stroke-miterlimit="10" stroke-width=".25"/><line x1="-32" x2="160" y1="8" y2="8" fill="none" stroke="#000" stroke-miterlimit="10" stroke-width=".25"/><line x1="-32" x2="160" y1="12" y2="12" fill="none" stroke="#000" stroke-miterlimit="10" stroke-width=".25"/><line x1="-32" x2="160" y1="16" y2="16" fill="none" stroke="#000" stroke-miterlimit="10" stroke-width=".25"/><line x1="-32" x2="160" y1="20" y2="20" fill="none" stroke="#000" stroke-miterlimit="10" stroke-width=".25"/><line x1="-32" x2="160" y1="24" y2="24" fill="none" stroke="#000" stroke-miterlimit="10" stroke-width=".25"/><line x1="-32" x2="160" y1="28" y2="28" fill="none" stroke="#000" stroke-miterlimit="10" stroke-width=".25"/><line x1="-32" x2="160" y1="32" y2="32" fill="none" stroke="#000" stroke-miterlimit="10" stroke-width=".25"/><line x1="-32" x2="160" y1="36" y2="36" fill="none" stroke="#000" stroke-miterlimit="10" stroke-width=".25"/><line x1="-32" x2="160" y1="40" y2="40" fill="none" stroke="#000" stroke-miterlimit="10" stroke-width=".25"/><line x1="-32" x2="160" y1="44" y2="44" fill="none" stroke="#000" stroke-miterlimit="10" stroke-width=".25"/><line x1="-32" x2="160" y1="48" y2="48" fill="none" stroke="#000" stroke-miterlimit="10" stroke-width=".25"/><line x1="-32" x2="160" y1="52" y2="52" fill="none" stroke="#000" stroke-miterlimit="10" stroke-width=".25"/><line x1="-32" x2="160" y1="56" y2="56" fill="none" stroke="#000" stroke-miterlimit="10" stroke-width=".25"/><line x1="-32" x2="160" y1="60" y2="60" fill="none" stroke="#000" stroke-miterlimit="10" stroke-width=".25"/><line x1="-32" x2="160" y1="64" y2="64" fill="none" stroke="#000" stroke-miterlimit="10" stroke-width=".25"/><line x1="-32" x2="160" y1="68" y2="68" fill="none" stroke="#000" stroke-miterlimit="10" stroke-width=".25"/><line x1="-32" x2="160" y1="72" y2="72" fill="none" stroke="#000" stroke-miterlimit="10" stroke-width=".25"/><line x1="-32" x2="160" y1="76" y2="76" fill="none" stroke="#000" stroke-miterlimit="10" stroke-width=".25"/><line x1="-32" x2="160" y1="80" y2="80" fill="none" stroke="#000" stroke-miterlimit="10" stroke-width=".25"/><line x1="-32" x2="160" y1="84" y2="84" fill="none" stroke="#000" stroke-miterlimit="10" stroke-width=".25"/><line x1="-32" x2="160" y1="88" y2="88" fill="none" stroke="#000" stroke-miterlimit="10" stroke-width=".25"/><line x1="-32" x2="160" y1="92" y2="92" fill="none" stroke="#000" stroke-miterlimit="10" stroke-width=".25"/><line x1="-32" x2="160" y1="96" y2="96" fill="none" stroke="#000" stroke-miterlimit="10" stroke-width=".25"/><line x1="-32" x2="160" y1="100" y2="100" fill="none" stroke="#000" stroke-miterlimit="10" stroke-width=".25"/><line x1="-32" x2="160" y1="104" y2="104" fill="none" stroke="#000" stroke-miterlimit="10" stroke-width=".25"/><line x1="-32" x2="160" y1="108" y2="108" fill="none" stroke="#000" stroke-miterlimit="10" stroke-width=".25"/><line x1="-32" x2="160" y1="112" y2="112" fill="none" stroke="#000" stroke-miterlimit="10" stroke-width=".25"/><line x1="-32" x2="160" y1="116" y2="116" fill="none" stroke="#000" stroke-miterlimit="10" stroke-width=".25"/><line x1="-32" x2="160" y1="120" y2="120" fill="none" stroke="#000" stroke-miterlimit="10" stroke-width=".25"/><line x1="-32" x2="160" y1="124" y2="124" fill="none" stroke="#000" stroke-miterlimit="10" stroke-width=".25"/><line x1="-32" x2="160" y1="128" y2="128" fill="none" stroke="#000" stroke-miterlimit="10" stroke-width=".25"/><line x1="-32" x2="160" y1="132" y2="132" fill="none" stroke="#000" stroke-miterlimit="10" stroke-width=".25"/><line x1="-32" x2="160" y1="136" y2="136" fill="none" stroke="#000" stroke-miterlimit="10" stroke-width=".25"/><line x1="-32" x2="160" y1="140" y2="140" fill="none" stroke="#000" stroke-miterlimit="10" stroke-width=".25"/><line x1="-32" x2="160" y1="144" y2="144" fill="none" stroke="#000" stroke-miterlimit="10" stroke-width=".25"/><line x1="-32" x2="160" y1="148" y2="148" fill="none" stroke="#000" stroke-miterlimit="10" stroke-width=".25"/><line x1="-32" x2="160" y1="152" y2="152" fill="none" stroke="#000" stroke-miterlimit="10" stroke-width=".25"/><line x1="-32" x2="160" y1="156" y2="156" fill="none" stroke="#000" stroke-miterlimit="10" stroke-width=".25"/></g><path d="M159.75-31.75v191.5h-191.5v-191.5H159.75 M160-32H-32v192h192V-32L160-32z"/></g></g><g><rect width="4" height="128" fill="#F44336" opacity=".3"/><rect width="4" height="128" x="124" fill="#F44336" opacity=".3"/><rect width="4" height="120" x="62" y="-58" fill="#F44336" opacity=".3" transform="matrix(-1.836970e-16 1 -1 -1.836970e-16 66 -62)"/><rect width="4" height="120" x="62" y="66" fill="#F44336" opacity=".3" transform="matrix(-1.836970e-16 1 -1 -1.836970e-16 190 62)"/></g></g></g></g></svg>