<svg xmlns="http://www.w3.org/2000/svg" xmlns:xlink="http://www.w3.org/1999/xlink" width="128" height="128" enable-background="new 0 0 128 128"><g id="Layer_1"><polygon fill="#4E342E" points="100 4 28 4 28.02 124 100.08 124"/><linearGradient id="SVGID_4_" x1="64" x2="64" y1="96.202" y2="-11.015" gradientUnits="userSpaceOnUse"><stop offset=".003" stop-color="#795548"/><stop offset="1" stop-color="#A1887F"/></linearGradient><polygon fill="url(#SVGID_4_)" points="94 123.85 34 123.98 34 10.55 94 10.42"/><g opacity=".2"><path fill="#424242" d="M91.97,12.43l-0.01,109.5l-56.09,0.03V12.54L91.97,12.43 M93.97,10.42l-60.09,0.13v113.41 l60.09-0.04L93.97,10.42L93.97,10.42z"/></g><path fill="#FFD54F" d="M51.71,72.44h-9c-1.38,0-2.5-1.12-2.5-2.5l0,0c0-1.38,1.12-2.5,2.5-2.5h9c1.38,0,2.5,1.12,2.5,2.5 l0,0C54.21,71.32,53.09,72.44,51.71,72.44z"/><circle cx="64.4" cy="33.6" r="4" fill="#64B5F6"/><g opacity=".2"><path fill="#424242" d="M64.4,31.6c1.1,0,2,0.9,2,2s-0.9,2-2,2s-2-0.9-2-2S63.3,31.6,64.4,31.6 M64.4,29.6 c-2.21,0-4,1.79-4,4s1.79,4,4,4s4-1.79,4-4S66.61,29.6,64.4,29.6L64.4,29.6z"/></g><g opacity=".2"><path fill="#424242" d="M98,6l0.08,116H30.02L30,6H98 M100,4H28l0.02,120h72.06L100,4L100,4z"/></g></g><g id="Layer_2" display="none"><g display="inline"><g opacity=".6"><circle cx="-229" cy="64" r="28" fill="none" stroke="#000" stroke-miterlimit="10" stroke-width=".263" opacity=".61"/><line x1="-209" x2="-209" y1="0" y2="128" fill="none" stroke="#000" stroke-miterlimit="10" stroke-width=".25" opacity=".61"/><line x1="-249" x2="-249" y1="0" y2="128" fill="none" stroke="#000" stroke-miterlimit="10" stroke-width=".25" opacity=".61"/><line x1="-229" x2="-229" y1="0" y2="128" fill="none" stroke="#000" stroke-miterlimit="10" stroke-width=".25" opacity=".61"/><line x1="-165" x2="-293" y1="64" y2="64" fill="none" stroke="#000" stroke-miterlimit="10" stroke-width=".25" opacity=".61"/><line x1="-165" x2="-293" y1="44" y2="44" fill="none" stroke="#000" stroke-miterlimit="10" stroke-width=".25" opacity=".61"/><line x1="-165" x2="-293" y1="83.75" y2="83.75" fill="none" stroke="#000" stroke-miterlimit="10" stroke-width=".25" opacity=".61"/><line x1="-165" x2="-293" y1="128" y2="0" fill="none" stroke="#000" stroke-miterlimit="10" stroke-width=".25" opacity=".61"/><line x1="-293" x2="-165" y1="128" y2="0" fill="none" stroke="#000" stroke-miterlimit="10" stroke-width=".25" opacity=".61"/><g opacity=".61"><path d="M-229,4.26c32.94,0,59.74,26.8,59.74,59.74s-26.8,59.74-59.74,59.74s-59.74-26.8-59.74-59.74S-261.94,4.26-229,4.26 M-229,4c-33.14,0-60,26.86-60,60s26.86,60,60,60s60-26.86,60-60S-195.86,4-229,4L-229,4z"/></g><path fill="none" stroke="#000" stroke-miterlimit="10" stroke-width=".258" d="M-185.03,115.97h-87.94 c-4.42,0-8.03-3.61-8.03-8.03V20.03c0-4.42,3.61-8.03,8.03-8.03h87.94c4.42,0,8.03,3.61,8.03,8.03v87.91 C-177,112.36-180.61,115.97-185.03,115.97z" opacity=".61"/><path fill="none" stroke="#000" stroke-miterlimit="10" stroke-width=".263" d="M-193,124h-72 c-4.4,0-8-3.6-8-8V12c0-4.4,3.6-8,8-8h72c4.4,0,8,3.6,8,8v104C-185,120.4-188.6,124-193,124z" opacity=".61"/><path fill="none" stroke="#000" stroke-miterlimit="10" stroke-width=".263" d="M-179.23,108h-99.54 c-5.63,0-10.23-4.6-10.23-10.23V30.28c0-5.63,4.6-10.23,10.23-10.23h99.54c5.63,0,10.23,4.6,10.23,10.23v67.48 C-169,103.4-173.6,108-179.23,108z" opacity=".61"/></g><g><g opacity=".2"><defs><rect id="SVGID_1_" width="128" height="128" x="-293" y="0" opacity=".2"/></defs><clipPath id="SVGID_5_"><use overflow="visible" xlink:href="#SVGID_1_"/></clipPath><g clip-path="url(#SVGID_5_)"><g><line x1="-321" x2="-321" y1="160" y2="-32" fill="none" stroke="#000" stroke-miterlimit="10" stroke-width=".25"/><line x1="-317" x2="-317" y1="160" y2="-32" fill="none" stroke="#000" stroke-miterlimit="10" stroke-width=".25"/><line x1="-313" x2="-313" y1="160" y2="-32" fill="none" stroke="#000" stroke-miterlimit="10" stroke-width=".25"/><line x1="-309" x2="-309" y1="160" y2="-32" fill="none" stroke="#000" stroke-miterlimit="10" stroke-width=".25"/><line x1="-305" x2="-305" y1="160" y2="-32" fill="none" stroke="#000" stroke-miterlimit="10" stroke-width=".25"/><line x1="-301" x2="-301" y1="160" y2="-32" fill="none" stroke="#000" stroke-miterlimit="10" stroke-width=".25"/><line x1="-297" x2="-297" y1="160" y2="-32" fill="none" stroke="#000" stroke-miterlimit="10" stroke-width=".25"/><line x1="-293" x2="-293" y1="160" y2="-32" fill="none" stroke="#000" stroke-miterlimit="10" stroke-width=".25"/><line x1="-289" x2="-289" y1="160" y2="-32" fill="none" stroke="#000" stroke-miterlimit="10" stroke-width=".25"/><line x1="-285" x2="-285" y1="160" y2="-32" fill="none" stroke="#000" stroke-miterlimit="10" stroke-width=".25"/><line x1="-281" x2="-281" y1="160" y2="-32" fill="none" stroke="#000" stroke-miterlimit="10" stroke-width=".25"/><line x1="-277" x2="-277" y1="160" y2="-32" fill="none" stroke="#000" stroke-miterlimit="10" stroke-width=".25"/><line x1="-273" x2="-273" y1="160" y2="-32" fill="none" stroke="#000" stroke-miterlimit="10" stroke-width=".25"/><line x1="-269" x2="-269" y1="160" y2="-32" fill="none" stroke="#000" stroke-miterlimit="10" stroke-width=".25"/><line x1="-265" x2="-265" y1="160" y2="-32" fill="none" stroke="#000" stroke-miterlimit="10" stroke-width=".25"/><line x1="-261" x2="-261" y1="160" y2="-32" fill="none" stroke="#000" stroke-miterlimit="10" stroke-width=".25"/><line x1="-257" x2="-257" y1="160" y2="-32" fill="none" stroke="#000" stroke-miterlimit="10" stroke-width=".25"/><line x1="-253" x2="-253" y1="160" y2="-32" fill="none" stroke="#000" stroke-miterlimit="10" stroke-width=".25"/><line x1="-249" x2="-249" y1="160" y2="-32" fill="none" stroke="#000" stroke-miterlimit="10" stroke-width=".25"/><line x1="-245" x2="-245" y1="160" y2="-32" fill="none" stroke="#000" stroke-miterlimit="10" stroke-width=".25"/><line x1="-241" x2="-241" y1="160" y2="-32" fill="none" stroke="#000" stroke-miterlimit="10" stroke-width=".25"/><line x1="-237" x2="-237" y1="160" y2="-32" fill="none" stroke="#000" stroke-miterlimit="10" stroke-width=".25"/><line x1="-233" x2="-233" y1="160" y2="-32" fill="none" stroke="#000" stroke-miterlimit="10" stroke-width=".25"/><line x1="-229" x2="-229" y1="160" y2="-32" fill="none" stroke="#000" stroke-miterlimit="10" stroke-width=".25"/><line x1="-225" x2="-225" y1="160" y2="-32" fill="none" stroke="#000" stroke-miterlimit="10" stroke-width=".25"/><line x1="-221" x2="-221" y1="160" y2="-32" fill="none" stroke="#000" stroke-miterlimit="10" stroke-width=".25"/><line x1="-217" x2="-217" y1="160" y2="-32" fill="none" stroke="#000" stroke-miterlimit="10" stroke-width=".25"/><line x1="-213" x2="-213" y1="160" y2="-32" fill="none" stroke="#000" stroke-miterlimit="10" stroke-width=".25"/><line x1="-209" x2="-209" y1="160" y2="-32" fill="none" stroke="#000" stroke-miterlimit="10" stroke-width=".25"/><line x1="-205" x2="-205" y1="160" y2="-32" fill="none" stroke="#000" stroke-miterlimit="10" stroke-width=".25"/><line x1="-201" x2="-201" y1="160" y2="-32" fill="none" stroke="#000" stroke-miterlimit="10" stroke-width=".25"/><line x1="-197" x2="-197" y1="160" y2="-32" fill="none" stroke="#000" stroke-miterlimit="10" stroke-width=".25"/><line x1="-193" x2="-193" y1="160" y2="-32" fill="none" stroke="#000" stroke-miterlimit="10" stroke-width=".25"/><line x1="-189" x2="-189" y1="160" y2="-32" fill="none" stroke="#000" stroke-miterlimit="10" stroke-width=".25"/><line x1="-185" x2="-185" y1="160" y2="-32" fill="none" stroke="#000" stroke-miterlimit="10" stroke-width=".25"/><line x1="-181" x2="-181" y1="160" y2="-32" fill="none" stroke="#000" stroke-miterlimit="10" stroke-width=".25"/><line x1="-177" x2="-177" y1="160" y2="-32" fill="none" stroke="#000" stroke-miterlimit="10" stroke-width=".25"/><line x1="-173" x2="-173" y1="160" y2="-32" fill="none" stroke="#000" stroke-miterlimit="10" stroke-width=".25"/><line x1="-169" x2="-169" y1="160" y2="-32" fill="none" stroke="#000" stroke-miterlimit="10" stroke-width=".25"/><line x1="-165" x2="-165" y1="160" y2="-32" fill="none" stroke="#000" stroke-miterlimit="10" stroke-width=".25"/><line x1="-161" x2="-161" y1="160" y2="-32" fill="none" stroke="#000" stroke-miterlimit="10" stroke-width=".25"/><line x1="-157" x2="-157" y1="160" y2="-32" fill="none" stroke="#000" stroke-miterlimit="10" stroke-width=".25"/><line x1="-156" x2="-156" y1="166.05" y2="-25.95" fill="none" stroke="#000" stroke-miterlimit="10" stroke-width=".25"/><line x1="-149" x2="-149" y1="160" y2="-32" fill="none" stroke="#000" stroke-miterlimit="10" stroke-width=".25"/><line x1="-145" x2="-145" y1="160" y2="-32" fill="none" stroke="#000" stroke-miterlimit="10" stroke-width=".25"/><line x1="-141" x2="-141" y1="160" y2="-32" fill="none" stroke="#000" stroke-miterlimit="10" stroke-width=".25"/><line x1="-137" x2="-137" y1="160" y2="-32" fill="none" stroke="#000" stroke-miterlimit="10" stroke-width=".25"/></g><g><line x1="-325" x2="-133" y1="-28" y2="-28" fill="none" stroke="#000" stroke-miterlimit="10" stroke-width=".25"/><line x1="-325" x2="-133" y1="-24" y2="-24" fill="none" stroke="#000" stroke-miterlimit="10" stroke-width=".25"/><line x1="-325" x2="-133" y1="-20" y2="-20" fill="none" stroke="#000" stroke-miterlimit="10" stroke-width=".25"/><line x1="-325" x2="-133" y1="-16" y2="-16" fill="none" stroke="#000" stroke-miterlimit="10" stroke-width=".25"/><line x1="-325" x2="-133" y1="-12" y2="-12" fill="none" stroke="#000" stroke-miterlimit="10" stroke-width=".25"/><line x1="-325" x2="-133" y1="-8" y2="-8" fill="none" stroke="#000" stroke-miterlimit="10" stroke-width=".25"/><line x1="-325" x2="-133" y1="-4" y2="-4" fill="none" stroke="#000" stroke-miterlimit="10" stroke-width=".25"/><line x1="-325" x2="-133" y1="0" y2="0" fill="none" stroke="#000" stroke-miterlimit="10" stroke-width=".25"/><line x1="-325" x2="-133" y1="4" y2="4" fill="none" stroke="#000" stroke-miterlimit="10" stroke-width=".25"/><line x1="-325" x2="-133" y1="8" y2="8" fill="none" stroke="#000" stroke-miterlimit="10" stroke-width=".25"/><line x1="-325" x2="-133" y1="12" y2="12" fill="none" stroke="#000" stroke-miterlimit="10" stroke-width=".25"/><line x1="-325" x2="-133" y1="16" y2="16" fill="none" stroke="#000" stroke-miterlimit="10" stroke-width=".25"/><line x1="-325" x2="-133" y1="20" y2="20" fill="none" stroke="#000" stroke-miterlimit="10" stroke-width=".25"/><line x1="-325" x2="-133" y1="24" y2="24" fill="none" stroke="#000" stroke-miterlimit="10" stroke-width=".25"/><line x1="-325" x2="-133" y1="28" y2="28" fill="none" stroke="#000" stroke-miterlimit="10" stroke-width=".25"/><line x1="-325" x2="-133" y1="32" y2="32" fill="none" stroke="#000" stroke-miterlimit="10" stroke-width=".25"/><line x1="-325" x2="-133" y1="36" y2="36" fill="none" stroke="#000" stroke-miterlimit="10" stroke-width=".25"/><line x1="-325" x2="-133" y1="40" y2="40" fill="none" stroke="#000" stroke-miterlimit="10" stroke-width=".25"/><line x1="-325" x2="-133" y1="44" y2="44" fill="none" stroke="#000" stroke-miterlimit="10" stroke-width=".25"/><line x1="-325" x2="-133" y1="48" y2="48" fill="none" stroke="#000" stroke-miterlimit="10" stroke-width=".25"/><line x1="-325" x2="-133" y1="52" y2="52" fill="none" stroke="#000" stroke-miterlimit="10" stroke-width=".25"/><line x1="-325" x2="-133" y1="56" y2="56" fill="none" stroke="#000" stroke-miterlimit="10" stroke-width=".25"/><line x1="-325" x2="-133" y1="60" y2="60" fill="none" stroke="#000" stroke-miterlimit="10" stroke-width=".25"/><line x1="-325" x2="-133" y1="64" y2="64" fill="none" stroke="#000" stroke-miterlimit="10" stroke-width=".25"/><line x1="-325" x2="-133" y1="68" y2="68" fill="none" stroke="#000" stroke-miterlimit="10" stroke-width=".25"/><line x1="-325" x2="-133" y1="72" y2="72" fill="none" stroke="#000" stroke-miterlimit="10" stroke-width=".25"/><line x1="-325" x2="-133" y1="76" y2="76" fill="none" stroke="#000" stroke-miterlimit="10" stroke-width=".25"/><line x1="-325" x2="-133" y1="80" y2="80" fill="none" stroke="#000" stroke-miterlimit="10" stroke-width=".25"/><line x1="-325" x2="-133" y1="84" y2="84" fill="none" stroke="#000" stroke-miterlimit="10" stroke-width=".25"/><line x1="-325" x2="-133" y1="88" y2="88" fill="none" stroke="#000" stroke-miterlimit="10" stroke-width=".25"/><line x1="-325" x2="-133" y1="92" y2="92" fill="none" stroke="#000" stroke-miterlimit="10" stroke-width=".25"/><line x1="-325" x2="-133" y1="96" y2="96" fill="none" stroke="#000" stroke-miterlimit="10" stroke-width=".25"/><line x1="-325" x2="-133" y1="100" y2="100" fill="none" stroke="#000" stroke-miterlimit="10" stroke-width=".25"/><line x1="-325" x2="-133" y1="104" y2="104" fill="none" stroke="#000" stroke-miterlimit="10" stroke-width=".25"/><line x1="-325" x2="-133" y1="108" y2="108" fill="none" stroke="#000" stroke-miterlimit="10" stroke-width=".25"/><line x1="-325" x2="-133" y1="112" y2="112" fill="none" stroke="#000" stroke-miterlimit="10" stroke-width=".25"/><line x1="-325" x2="-133" y1="116" y2="116" fill="none" stroke="#000" stroke-miterlimit="10" stroke-width=".25"/><line x1="-325" x2="-133" y1="120" y2="120" fill="none" stroke="#000" stroke-miterlimit="10" stroke-width=".25"/><line x1="-325" x2="-133" y1="124" y2="124" fill="none" stroke="#000" stroke-miterlimit="10" stroke-width=".25"/><line x1="-325" x2="-133" y1="128" y2="128" fill="none" stroke="#000" stroke-miterlimit="10" stroke-width=".25"/><line x1="-325" x2="-133" y1="132" y2="132" fill="none" stroke="#000" stroke-miterlimit="10" stroke-width=".25"/><line x1="-325" x2="-133" y1="136" y2="136" fill="none" stroke="#000" stroke-miterlimit="10" stroke-width=".25"/><line x1="-325" x2="-133" y1="140" y2="140" fill="none" stroke="#000" stroke-miterlimit="10" stroke-width=".25"/><line x1="-325" x2="-133" y1="144" y2="144" fill="none" stroke="#000" stroke-miterlimit="10" stroke-width=".25"/><line x1="-325" x2="-133" y1="148" y2="148" fill="none" stroke="#000" stroke-miterlimit="10" stroke-width=".25"/><line x1="-325" x2="-133" y1="152" y2="152" fill="none" stroke="#000" stroke-miterlimit="10" stroke-width=".25"/><line x1="-325" x2="-133" y1="156" y2="156" fill="none" stroke="#000" stroke-miterlimit="10" stroke-width=".25"/></g><path d="M-133.25-31.75v191.5h-191.5v-191.5H-133.25 M-133-32h-192v192h192V-32L-133-32z"/></g></g><g><rect width="4" height="128" x="-293" y="0" fill="#F44336" opacity=".3"/><rect width="4" height="128" x="-169" y="0" fill="#F44336" opacity=".3"/><rect width="4" height="120" x="-231" y="-58" fill="#F44336" opacity=".3" transform="matrix(-1.836970e-16 1 -1 -1.836970e-16 -227 231)"/><rect width="4" height="120" x="-231" y="66" fill="#F44336" opacity=".3" transform="matrix(-1.836970e-16 1 -1 -1.836970e-16 -103 355)"/></g></g></g><g display="inline"><g opacity=".6"><circle cx="-74" cy="64" r="28" fill="none" stroke="#000" stroke-miterlimit="10" stroke-width=".263" opacity=".61"/><line x1="-54" x2="-54" y1="0" y2="128" fill="none" stroke="#000" stroke-miterlimit="10" stroke-width=".25" opacity=".61"/><line x1="-94" x2="-94" y1="0" y2="128" fill="none" stroke="#000" stroke-miterlimit="10" stroke-width=".25" opacity=".61"/><line x1="-74" x2="-74" y1="0" y2="128" fill="none" stroke="#000" stroke-miterlimit="10" stroke-width=".25" opacity=".61"/><line x1="-10" x2="-138" y1="64" y2="64" fill="none" stroke="#000" stroke-miterlimit="10" stroke-width=".25" opacity=".61"/><line x1="-10" x2="-138" y1="44" y2="44" fill="none" stroke="#000" stroke-miterlimit="10" stroke-width=".25" opacity=".61"/><line x1="-10" x2="-138" y1="83.75" y2="83.75" fill="none" stroke="#000" stroke-miterlimit="10" stroke-width=".25" opacity=".61"/><line x1="-10" x2="-138" y1="128" y2="0" fill="none" stroke="#000" stroke-miterlimit="10" stroke-width=".25" opacity=".61"/><line x1="-138" x2="-10" y1="128" y2="0" fill="none" stroke="#000" stroke-miterlimit="10" stroke-width=".25" opacity=".61"/><g opacity=".61"><path d="M-74,4.26c32.94,0,59.74,26.8,59.74,59.74s-26.8,59.74-59.74,59.74s-59.74-26.8-59.74-59.74S-106.94,4.26-74,4.26 M-74,4c-33.14,0-60,26.86-60,60s26.86,60,60,60s60-26.86,60-60S-40.86,4-74,4L-74,4z"/></g><path fill="none" stroke="#000" stroke-miterlimit="10" stroke-width=".258" d="M-30.03,115.97h-87.94 c-4.42,0-8.03-3.61-8.03-8.03V20.03c0-4.42,3.61-8.03,8.03-8.03h87.94c4.42,0,8.03,3.61,8.03,8.03v87.91 C-22,112.36-25.61,115.97-30.03,115.97z" opacity=".61"/><path fill="none" stroke="#000" stroke-miterlimit="10" stroke-width=".263" d="M-38,124h-72 c-4.4,0-8-3.6-8-8V12c0-4.4,3.6-8,8-8h72c4.4,0,8,3.6,8,8v104C-30,120.4-33.6,124-38,124z" opacity=".61"/><path fill="none" stroke="#000" stroke-miterlimit="10" stroke-width=".263" d="M-24.23,108h-99.54 c-5.63,0-10.23-4.6-10.23-10.23V30.28c0-5.63,4.6-10.23,10.23-10.23h99.54c5.63,0,10.23,4.6,10.23,10.23v67.48 C-14,103.4-18.6,108-24.23,108z" opacity=".61"/></g><g><g opacity=".2"><defs><rect id="SVGID_3_" width="128" height="128" x="-138" y="0" opacity=".2"/></defs><clipPath id="SVGID_6_"><use overflow="visible" xlink:href="#SVGID_3_"/></clipPath><g clip-path="url(#SVGID_6_)"><g><line x1="-166" x2="-166" y1="160" y2="-32" fill="none" stroke="#000" stroke-miterlimit="10" stroke-width=".25"/><line x1="-162" x2="-162" y1="160" y2="-32" fill="none" stroke="#000" stroke-miterlimit="10" stroke-width=".25"/><line x1="-158" x2="-158" y1="160" y2="-32" fill="none" stroke="#000" stroke-miterlimit="10" stroke-width=".25"/><line x1="-154" x2="-154" y1="160" y2="-32" fill="none" stroke="#000" stroke-miterlimit="10" stroke-width=".25"/><line x1="-150" x2="-150" y1="160" y2="-32" fill="none" stroke="#000" stroke-miterlimit="10" stroke-width=".25"/><line x1="-146" x2="-146" y1="160" y2="-32" fill="none" stroke="#000" stroke-miterlimit="10" stroke-width=".25"/><line x1="-142" x2="-142" y1="160" y2="-32" fill="none" stroke="#000" stroke-miterlimit="10" stroke-width=".25"/><line x1="-138" x2="-138" y1="160" y2="-32" fill="none" stroke="#000" stroke-miterlimit="10" stroke-width=".25"/><line x1="-134" x2="-134" y1="160" y2="-32" fill="none" stroke="#000" stroke-miterlimit="10" stroke-width=".25"/><line x1="-130" x2="-130" y1="160" y2="-32" fill="none" stroke="#000" stroke-miterlimit="10" stroke-width=".25"/><line x1="-126" x2="-126" y1="160" y2="-32" fill="none" stroke="#000" stroke-miterlimit="10" stroke-width=".25"/><line x1="-122" x2="-122" y1="160" y2="-32" fill="none" stroke="#000" stroke-miterlimit="10" stroke-width=".25"/><line x1="-118" x2="-118" y1="160" y2="-32" fill="none" stroke="#000" stroke-miterlimit="10" stroke-width=".25"/><line x1="-114" x2="-114" y1="160" y2="-32" fill="none" stroke="#000" stroke-miterlimit="10" stroke-width=".25"/><line x1="-110" x2="-110" y1="160" y2="-32" fill="none" stroke="#000" stroke-miterlimit="10" stroke-width=".25"/><line x1="-106" x2="-106" y1="160" y2="-32" fill="none" stroke="#000" stroke-miterlimit="10" stroke-width=".25"/><line x1="-102" x2="-102" y1="160" y2="-32" fill="none" stroke="#000" stroke-miterlimit="10" stroke-width=".25"/><line x1="-98" x2="-98" y1="160" y2="-32" fill="none" stroke="#000" stroke-miterlimit="10" stroke-width=".25"/><line x1="-94" x2="-94" y1="160" y2="-32" fill="none" stroke="#000" stroke-miterlimit="10" stroke-width=".25"/><line x1="-90" x2="-90" y1="160" y2="-32" fill="none" stroke="#000" stroke-miterlimit="10" stroke-width=".25"/><line x1="-86" x2="-86" y1="160" y2="-32" fill="none" stroke="#000" stroke-miterlimit="10" stroke-width=".25"/><line x1="-82" x2="-82" y1="160" y2="-32" fill="none" stroke="#000" stroke-miterlimit="10" stroke-width=".25"/><line x1="-78" x2="-78" y1="160" y2="-32" fill="none" stroke="#000" stroke-miterlimit="10" stroke-width=".25"/><line x1="-74" x2="-74" y1="160" y2="-32" fill="none" stroke="#000" stroke-miterlimit="10" stroke-width=".25"/><line x1="-70" x2="-70" y1="160" y2="-32" fill="none" stroke="#000" stroke-miterlimit="10" stroke-width=".25"/><line x1="-66" x2="-66" y1="160" y2="-32" fill="none" stroke="#000" stroke-miterlimit="10" stroke-width=".25"/><line x1="-62" x2="-62" y1="160" y2="-32" fill="none" stroke="#000" stroke-miterlimit="10" stroke-width=".25"/><line x1="-58" x2="-58" y1="160" y2="-32" fill="none" stroke="#000" stroke-miterlimit="10" stroke-width=".25"/><line x1="-54" x2="-54" y1="160" y2="-32" fill="none" stroke="#000" stroke-miterlimit="10" stroke-width=".25"/><line x1="-50" x2="-50" y1="160" y2="-32" fill="none" stroke="#000" stroke-miterlimit="10" stroke-width=".25"/><line x1="-46" x2="-46" y1="160" y2="-32" fill="none" stroke="#000" stroke-miterlimit="10" stroke-width=".25"/><line x1="-42" x2="-42" y1="160" y2="-32" fill="none" stroke="#000" stroke-miterlimit="10" stroke-width=".25"/><line x1="-38" x2="-38" y1="160" y2="-32" fill="none" stroke="#000" stroke-miterlimit="10" stroke-width=".25"/><line x1="-34" x2="-34" y1="160" y2="-32" fill="none" stroke="#000" stroke-miterlimit="10" stroke-width=".25"/><line x1="-30" x2="-30" y1="160" y2="-32" fill="none" stroke="#000" stroke-miterlimit="10" stroke-width=".25"/><line x1="-26" x2="-26" y1="160" y2="-32" fill="none" stroke="#000" stroke-miterlimit="10" stroke-width=".25"/><line x1="-22" x2="-22" y1="160" y2="-32" fill="none" stroke="#000" stroke-miterlimit="10" stroke-width=".25"/><line x1="-18" x2="-18" y1="160" y2="-32" fill="none" stroke="#000" stroke-miterlimit="10" stroke-width=".25"/><line x1="-14" x2="-14" y1="160" y2="-32" fill="none" stroke="#000" stroke-miterlimit="10" stroke-width=".25"/><line x1="-10" x2="-10" y1="160" y2="-32" fill="none" stroke="#000" stroke-miterlimit="10" stroke-width=".25"/><line x1="-6" x2="-6" y1="160" y2="-32" fill="none" stroke="#000" stroke-miterlimit="10" stroke-width=".25"/><line x1="-2" x2="-2" y1="160" y2="-32" fill="none" stroke="#000" stroke-miterlimit="10" stroke-width=".25"/><line x1="-1" x2="-1" y1="166.05" y2="-25.95" fill="none" stroke="#000" stroke-miterlimit="10" stroke-width=".25"/><line x1="6" x2="6" y1="160" y2="-32" fill="none" stroke="#000" stroke-miterlimit="10" stroke-width=".25"/><line x1="10" x2="10" y1="160" y2="-32" fill="none" stroke="#000" stroke-miterlimit="10" stroke-width=".25"/><line x1="14" x2="14" y1="160" y2="-32" fill="none" stroke="#000" stroke-miterlimit="10" stroke-width=".25"/><line x1="18" x2="18" y1="160" y2="-32" fill="none" stroke="#000" stroke-miterlimit="10" stroke-width=".25"/></g><g><line x1="-170" x2="22" y1="-28" y2="-28" fill="none" stroke="#000" stroke-miterlimit="10" stroke-width=".25"/><line x1="-170" x2="22" y1="-24" y2="-24" fill="none" stroke="#000" stroke-miterlimit="10" stroke-width=".25"/><line x1="-170" x2="22" y1="-20" y2="-20" fill="none" stroke="#000" stroke-miterlimit="10" stroke-width=".25"/><line x1="-170" x2="22" y1="-16" y2="-16" fill="none" stroke="#000" stroke-miterlimit="10" stroke-width=".25"/><line x1="-170" x2="22" y1="-12" y2="-12" fill="none" stroke="#000" stroke-miterlimit="10" stroke-width=".25"/><line x1="-170" x2="22" y1="-8" y2="-8" fill="none" stroke="#000" stroke-miterlimit="10" stroke-width=".25"/><line x1="-170" x2="22" y1="-4" y2="-4" fill="none" stroke="#000" stroke-miterlimit="10" stroke-width=".25"/><line x1="-170" x2="22" y1="0" y2="0" fill="none" stroke="#000" stroke-miterlimit="10" stroke-width=".25"/><line x1="-170" x2="22" y1="4" y2="4" fill="none" stroke="#000" stroke-miterlimit="10" stroke-width=".25"/><line x1="-170" x2="22" y1="8" y2="8" fill="none" stroke="#000" stroke-miterlimit="10" stroke-width=".25"/><line x1="-170" x2="22" y1="12" y2="12" fill="none" stroke="#000" stroke-miterlimit="10" stroke-width=".25"/><line x1="-170" x2="22" y1="16" y2="16" fill="none" stroke="#000" stroke-miterlimit="10" stroke-width=".25"/><line x1="-170" x2="22" y1="20" y2="20" fill="none" stroke="#000" stroke-miterlimit="10" stroke-width=".25"/><line x1="-170" x2="22" y1="24" y2="24" fill="none" stroke="#000" stroke-miterlimit="10" stroke-width=".25"/><line x1="-170" x2="22" y1="28" y2="28" fill="none" stroke="#000" stroke-miterlimit="10" stroke-width=".25"/><line x1="-170" x2="22" y1="32" y2="32" fill="none" stroke="#000" stroke-miterlimit="10" stroke-width=".25"/><line x1="-170" x2="22" y1="36" y2="36" fill="none" stroke="#000" stroke-miterlimit="10" stroke-width=".25"/><line x1="-170" x2="22" y1="40" y2="40" fill="none" stroke="#000" stroke-miterlimit="10" stroke-width=".25"/><line x1="-170" x2="22" y1="44" y2="44" fill="none" stroke="#000" stroke-miterlimit="10" stroke-width=".25"/><line x1="-170" x2="22" y1="48" y2="48" fill="none" stroke="#000" stroke-miterlimit="10" stroke-width=".25"/><line x1="-170" x2="22" y1="52" y2="52" fill="none" stroke="#000" stroke-miterlimit="10" stroke-width=".25"/><line x1="-170" x2="22" y1="56" y2="56" fill="none" stroke="#000" stroke-miterlimit="10" stroke-width=".25"/><line x1="-170" x2="22" y1="60" y2="60" fill="none" stroke="#000" stroke-miterlimit="10" stroke-width=".25"/><line x1="-170" x2="22" y1="64" y2="64" fill="none" stroke="#000" stroke-miterlimit="10" stroke-width=".25"/><line x1="-170" x2="22" y1="68" y2="68" fill="none" stroke="#000" stroke-miterlimit="10" stroke-width=".25"/><line x1="-170" x2="22" y1="72" y2="72" fill="none" stroke="#000" stroke-miterlimit="10" stroke-width=".25"/><line x1="-170" x2="22" y1="76" y2="76" fill="none" stroke="#000" stroke-miterlimit="10" stroke-width=".25"/><line x1="-170" x2="22" y1="80" y2="80" fill="none" stroke="#000" stroke-miterlimit="10" stroke-width=".25"/><line x1="-170" x2="22" y1="84" y2="84" fill="none" stroke="#000" stroke-miterlimit="10" stroke-width=".25"/><line x1="-170" x2="22" y1="88" y2="88" fill="none" stroke="#000" stroke-miterlimit="10" stroke-width=".25"/><line x1="-170" x2="22" y1="92" y2="92" fill="none" stroke="#000" stroke-miterlimit="10" stroke-width=".25"/><line x1="-170" x2="22" y1="96" y2="96" fill="none" stroke="#000" stroke-miterlimit="10" stroke-width=".25"/><line x1="-170" x2="22" y1="100" y2="100" fill="none" stroke="#000" stroke-miterlimit="10" stroke-width=".25"/><line x1="-170" x2="22" y1="104" y2="104" fill="none" stroke="#000" stroke-miterlimit="10" stroke-width=".25"/><line x1="-170" x2="22" y1="108" y2="108" fill="none" stroke="#000" stroke-miterlimit="10" stroke-width=".25"/><line x1="-170" x2="22" y1="112" y2="112" fill="none" stroke="#000" stroke-miterlimit="10" stroke-width=".25"/><line x1="-170" x2="22" y1="116" y2="116" fill="none" stroke="#000" stroke-miterlimit="10" stroke-width=".25"/><line x1="-170" x2="22" y1="120" y2="120" fill="none" stroke="#000" stroke-miterlimit="10" stroke-width=".25"/><line x1="-170" x2="22" y1="124" y2="124" fill="none" stroke="#000" stroke-miterlimit="10" stroke-width=".25"/><line x1="-170" x2="22" y1="128" y2="128" fill="none" stroke="#000" stroke-miterlimit="10" stroke-width=".25"/><line x1="-170" x2="22" y1="132" y2="132" fill="none" stroke="#000" stroke-miterlimit="10" stroke-width=".25"/><line x1="-170" x2="22" y1="136" y2="136" fill="none" stroke="#000" stroke-miterlimit="10" stroke-width=".25"/><line x1="-170" x2="22" y1="140" y2="140" fill="none" stroke="#000" stroke-miterlimit="10" stroke-width=".25"/><line x1="-170" x2="22" y1="144" y2="144" fill="none" stroke="#000" stroke-miterlimit="10" stroke-width=".25"/><line x1="-170" x2="22" y1="148" y2="148" fill="none" stroke="#000" stroke-miterlimit="10" stroke-width=".25"/><line x1="-170" x2="22" y1="152" y2="152" fill="none" stroke="#000" stroke-miterlimit="10" stroke-width=".25"/><line x1="-170" x2="22" y1="156" y2="156" fill="none" stroke="#000" stroke-miterlimit="10" stroke-width=".25"/></g><path d="M21.75-31.75v191.5h-191.5v-191.5H21.75 M22-32h-192v192H22V-32L22-32z"/></g></g><g><rect width="4" height="128" x="-138" y="0" fill="#F44336" opacity=".3"/><rect width="4" height="128" x="-14" y="0" fill="#F44336" opacity=".3"/><rect width="4" height="120" x="-76" y="-58" fill="#F44336" opacity=".3" transform="matrix(-1.836970e-16 1 -1 -1.836970e-16 -72 76)"/><rect width="4" height="120" x="-76" y="66" fill="#F44336" opacity=".3" transform="matrix(-1.836970e-16 1 -1 -1.836970e-16 52 200)"/></g></g></g><g display="inline"><g opacity=".6"><circle cx="64" cy="64" r="28" fill="none" stroke="#000" stroke-miterlimit="10" stroke-width=".263" opacity=".61"/><line x1="84" x2="84" y1="0" y2="128" fill="none" stroke="#000" stroke-miterlimit="10" stroke-width=".25" opacity=".61"/><line x1="44" x2="44" y1="0" y2="128" fill="none" stroke="#000" stroke-miterlimit="10" stroke-width=".25" opacity=".61"/><line x1="64" x2="64" y1="0" y2="128" fill="none" stroke="#000" stroke-miterlimit="10" stroke-width=".25" opacity=".61"/><line x1="128" x2="0" y1="64" y2="64" fill="none" stroke="#000" stroke-miterlimit="10" stroke-width=".25" opacity=".61"/><line x1="128" x2="0" y1="44" y2="44" fill="none" stroke="#000" stroke-miterlimit="10" stroke-width=".25" opacity=".61"/><line x1="128" x2="0" y1="83.75" y2="83.75" fill="none" stroke="#000" stroke-miterlimit="10" stroke-width=".25" opacity=".61"/><line x1="128" x2="0" y1="128" y2="0" fill="none" stroke="#000" stroke-miterlimit="10" stroke-width=".25" opacity=".61"/><line x1="0" x2="128" y1="128" y2="0" fill="none" stroke="#000" stroke-miterlimit="10" stroke-width=".25" opacity=".61"/><g opacity=".61"><path d="M64,4.26c32.94,0,59.74,26.8,59.74,59.74S96.94,123.74,64,123.74S4.26,96.94,4.26,64S31.06,4.26,64,4.26 M64,4 C30.86,4,4,30.86,4,64s26.86,60,60,60s60-26.86,60-60S97.14,4,64,4L64,4z"/></g><path fill="none" stroke="#000" stroke-miterlimit="10" stroke-width=".258" d="M107.97,115.97H20.03 c-4.42,0-8.03-3.61-8.03-8.03V20.03c0-4.42,3.61-8.03,8.03-8.03h87.94c4.42,0,8.03,3.61,8.03,8.03v87.91 C116,112.36,112.39,115.97,107.97,115.97z" opacity=".61"/><path fill="none" stroke="#000" stroke-miterlimit="10" stroke-width=".263" d="M100,124H28c-4.4,0-8-3.6-8-8 V12c0-4.4,3.6-8,8-8h72c4.4,0,8,3.6,8,8v104C108,120.4,104.4,124,100,124z" opacity=".61"/><path fill="none" stroke="#000" stroke-miterlimit="10" stroke-width=".263" d="M113.77,108H14.23 C8.6,108,4,103.4,4,97.77V30.28c0-5.63,4.6-10.23,10.23-10.23h99.54c5.63,0,10.23,4.6,10.23,10.23v67.48 C124,103.4,119.4,108,113.77,108z" opacity=".61"/></g><g><g opacity=".2"><defs><rect id="SVGID_2_" width="128" height="128" x="0" y="0" opacity=".2"/></defs><clipPath id="SVGID_7_"><use overflow="visible" xlink:href="#SVGID_2_"/></clipPath><g clip-path="url(#SVGID_7_)"><g><line x1="-28" x2="-28" y1="160" y2="-32" fill="none" stroke="#000" stroke-miterlimit="10" stroke-width=".25"/><line x1="-24" x2="-24" y1="160" y2="-32" fill="none" stroke="#000" stroke-miterlimit="10" stroke-width=".25"/><line x1="-20" x2="-20" y1="160" y2="-32" fill="none" stroke="#000" stroke-miterlimit="10" stroke-width=".25"/><line x1="-16" x2="-16" y1="160" y2="-32" fill="none" stroke="#000" stroke-miterlimit="10" stroke-width=".25"/><line x1="-12" x2="-12" y1="160" y2="-32" fill="none" stroke="#000" stroke-miterlimit="10" stroke-width=".25"/><line x1="-8" x2="-8" y1="160" y2="-32" fill="none" stroke="#000" stroke-miterlimit="10" stroke-width=".25"/><line x1="-4" x2="-4" y1="160" y2="-32" fill="none" stroke="#000" stroke-miterlimit="10" stroke-width=".25"/><line x1="0" x2="0" y1="160" y2="-32" fill="none" stroke="#000" stroke-miterlimit="10" stroke-width=".25"/><line x1="4" x2="4" y1="160" y2="-32" fill="none" stroke="#000" stroke-miterlimit="10" stroke-width=".25"/><line x1="8" x2="8" y1="160" y2="-32" fill="none" stroke="#000" stroke-miterlimit="10" stroke-width=".25"/><line x1="12" x2="12" y1="160" y2="-32" fill="none" stroke="#000" stroke-miterlimit="10" stroke-width=".25"/><line x1="16" x2="16" y1="160" y2="-32" fill="none" stroke="#000" stroke-miterlimit="10" stroke-width=".25"/><line x1="20" x2="20" y1="160" y2="-32" fill="none" stroke="#000" stroke-miterlimit="10" stroke-width=".25"/><line x1="24" x2="24" y1="160" y2="-32" fill="none" stroke="#000" stroke-miterlimit="10" stroke-width=".25"/><line x1="28" x2="28" y1="160" y2="-32" fill="none" stroke="#000" stroke-miterlimit="10" stroke-width=".25"/><line x1="32" x2="32" y1="160" y2="-32" fill="none" stroke="#000" stroke-miterlimit="10" stroke-width=".25"/><line x1="36" x2="36" y1="160" y2="-32" fill="none" stroke="#000" stroke-miterlimit="10" stroke-width=".25"/><line x1="40" x2="40" y1="160" y2="-32" fill="none" stroke="#000" stroke-miterlimit="10" stroke-width=".25"/><line x1="44" x2="44" y1="160" y2="-32" fill="none" stroke="#000" stroke-miterlimit="10" stroke-width=".25"/><line x1="48" x2="48" y1="160" y2="-32" fill="none" stroke="#000" stroke-miterlimit="10" stroke-width=".25"/><line x1="52" x2="52" y1="160" y2="-32" fill="none" stroke="#000" stroke-miterlimit="10" stroke-width=".25"/><line x1="56" x2="56" y1="160" y2="-32" fill="none" stroke="#000" stroke-miterlimit="10" stroke-width=".25"/><line x1="60" x2="60" y1="160" y2="-32" fill="none" stroke="#000" stroke-miterlimit="10" stroke-width=".25"/><line x1="64" x2="64" y1="160" y2="-32" fill="none" stroke="#000" stroke-miterlimit="10" stroke-width=".25"/><line x1="68" x2="68" y1="160" y2="-32" fill="none" stroke="#000" stroke-miterlimit="10" stroke-width=".25"/><line x1="72" x2="72" y1="160" y2="-32" fill="none" stroke="#000" stroke-miterlimit="10" stroke-width=".25"/><line x1="76" x2="76" y1="160" y2="-32" fill="none" stroke="#000" stroke-miterlimit="10" stroke-width=".25"/><line x1="80" x2="80" y1="160" y2="-32" fill="none" stroke="#000" stroke-miterlimit="10" stroke-width=".25"/><line x1="84" x2="84" y1="160" y2="-32" fill="none" stroke="#000" stroke-miterlimit="10" stroke-width=".25"/><line x1="88" x2="88" y1="160" y2="-32" fill="none" stroke="#000" stroke-miterlimit="10" stroke-width=".25"/><line x1="92" x2="92" y1="160" y2="-32" fill="none" stroke="#000" stroke-miterlimit="10" stroke-width=".25"/><line x1="96" x2="96" y1="160" y2="-32" fill="none" stroke="#000" stroke-miterlimit="10" stroke-width=".25"/><line x1="100" x2="100" y1="160" y2="-32" fill="none" stroke="#000" stroke-miterlimit="10" stroke-width=".25"/><line x1="104" x2="104" y1="160" y2="-32" fill="none" stroke="#000" stroke-miterlimit="10" stroke-width=".25"/><line x1="108" x2="108" y1="160" y2="-32" fill="none" stroke="#000" stroke-miterlimit="10" stroke-width=".25"/><line x1="112" x2="112" y1="160" y2="-32" fill="none" stroke="#000" stroke-miterlimit="10" stroke-width=".25"/><line x1="116" x2="116" y1="160" y2="-32" fill="none" stroke="#000" stroke-miterlimit="10" stroke-width=".25"/><line x1="120" x2="120" y1="160" y2="-32" fill="none" stroke="#000" stroke-miterlimit="10" stroke-width=".25"/><line x1="124" x2="124" y1="160" y2="-32" fill="none" stroke="#000" stroke-miterlimit="10" stroke-width=".25"/><line x1="128" x2="128" y1="160" y2="-32" fill="none" stroke="#000" stroke-miterlimit="10" stroke-width=".25"/><line x1="132" x2="132" y1="160" y2="-32" fill="none" stroke="#000" stroke-miterlimit="10" stroke-width=".25"/><line x1="136" x2="136" y1="160" y2="-32" fill="none" stroke="#000" stroke-miterlimit="10" stroke-width=".25"/><line x1="137" x2="137" y1="166.05" y2="-25.95" fill="none" stroke="#000" stroke-miterlimit="10" stroke-width=".25"/><line x1="144" x2="144" y1="160" y2="-32" fill="none" stroke="#000" stroke-miterlimit="10" stroke-width=".25"/><line x1="148" x2="148" y1="160" y2="-32" fill="none" stroke="#000" stroke-miterlimit="10" stroke-width=".25"/><line x1="152" x2="152" y1="160" y2="-32" fill="none" stroke="#000" stroke-miterlimit="10" stroke-width=".25"/><line x1="156" x2="156" y1="160" y2="-32" fill="none" stroke="#000" stroke-miterlimit="10" stroke-width=".25"/></g><g><line x1="-32" x2="160" y1="-28" y2="-28" fill="none" stroke="#000" stroke-miterlimit="10" stroke-width=".25"/><line x1="-32" x2="160" y1="-24" y2="-24" fill="none" stroke="#000" stroke-miterlimit="10" stroke-width=".25"/><line x1="-32" x2="160" y1="-20" y2="-20" fill="none" stroke="#000" stroke-miterlimit="10" stroke-width=".25"/><line x1="-32" x2="160" y1="-16" y2="-16" fill="none" stroke="#000" stroke-miterlimit="10" stroke-width=".25"/><line x1="-32" x2="160" y1="-12" y2="-12" fill="none" stroke="#000" stroke-miterlimit="10" stroke-width=".25"/><line x1="-32" x2="160" y1="-8" y2="-8" fill="none" stroke="#000" stroke-miterlimit="10" stroke-width=".25"/><line x1="-32" x2="160" y1="-4" y2="-4" fill="none" stroke="#000" stroke-miterlimit="10" stroke-width=".25"/><line x1="-32" x2="160" y1="0" y2="0" fill="none" stroke="#000" stroke-miterlimit="10" stroke-width=".25"/><line x1="-32" x2="160" y1="4" y2="4" fill="none" stroke="#000" stroke-miterlimit="10" stroke-width=".25"/><line x1="-32" x2="160" y1="8" y2="8" fill="none" stroke="#000" stroke-miterlimit="10" stroke-width=".25"/><line x1="-32" x2="160" y1="12" y2="12" fill="none" stroke="#000" stroke-miterlimit="10" stroke-width=".25"/><line x1="-32" x2="160" y1="16" y2="16" fill="none" stroke="#000" stroke-miterlimit="10" stroke-width=".25"/><line x1="-32" x2="160" y1="20" y2="20" fill="none" stroke="#000" stroke-miterlimit="10" stroke-width=".25"/><line x1="-32" x2="160" y1="24" y2="24" fill="none" stroke="#000" stroke-miterlimit="10" stroke-width=".25"/><line x1="-32" x2="160" y1="28" y2="28" fill="none" stroke="#000" stroke-miterlimit="10" stroke-width=".25"/><line x1="-32" x2="160" y1="32" y2="32" fill="none" stroke="#000" stroke-miterlimit="10" stroke-width=".25"/><line x1="-32" x2="160" y1="36" y2="36" fill="none" stroke="#000" stroke-miterlimit="10" stroke-width=".25"/><line x1="-32" x2="160" y1="40" y2="40" fill="none" stroke="#000" stroke-miterlimit="10" stroke-width=".25"/><line x1="-32" x2="160" y1="44" y2="44" fill="none" stroke="#000" stroke-miterlimit="10" stroke-width=".25"/><line x1="-32" x2="160" y1="48" y2="48" fill="none" stroke="#000" stroke-miterlimit="10" stroke-width=".25"/><line x1="-32" x2="160" y1="52" y2="52" fill="none" stroke="#000" stroke-miterlimit="10" stroke-width=".25"/><line x1="-32" x2="160" y1="56" y2="56" fill="none" stroke="#000" stroke-miterlimit="10" stroke-width=".25"/><line x1="-32" x2="160" y1="60" y2="60" fill="none" stroke="#000" stroke-miterlimit="10" stroke-width=".25"/><line x1="-32" x2="160" y1="64" y2="64" fill="none" stroke="#000" stroke-miterlimit="10" stroke-width=".25"/><line x1="-32" x2="160" y1="68" y2="68" fill="none" stroke="#000" stroke-miterlimit="10" stroke-width=".25"/><line x1="-32" x2="160" y1="72" y2="72" fill="none" stroke="#000" stroke-miterlimit="10" stroke-width=".25"/><line x1="-32" x2="160" y1="76" y2="76" fill="none" stroke="#000" stroke-miterlimit="10" stroke-width=".25"/><line x1="-32" x2="160" y1="80" y2="80" fill="none" stroke="#000" stroke-miterlimit="10" stroke-width=".25"/><line x1="-32" x2="160" y1="84" y2="84" fill="none" stroke="#000" stroke-miterlimit="10" stroke-width=".25"/><line x1="-32" x2="160" y1="88" y2="88" fill="none" stroke="#000" stroke-miterlimit="10" stroke-width=".25"/><line x1="-32" x2="160" y1="92" y2="92" fill="none" stroke="#000" stroke-miterlimit="10" stroke-width=".25"/><line x1="-32" x2="160" y1="96" y2="96" fill="none" stroke="#000" stroke-miterlimit="10" stroke-width=".25"/><line x1="-32" x2="160" y1="100" y2="100" fill="none" stroke="#000" stroke-miterlimit="10" stroke-width=".25"/><line x1="-32" x2="160" y1="104" y2="104" fill="none" stroke="#000" stroke-miterlimit="10" stroke-width=".25"/><line x1="-32" x2="160" y1="108" y2="108" fill="none" stroke="#000" stroke-miterlimit="10" stroke-width=".25"/><line x1="-32" x2="160" y1="112" y2="112" fill="none" stroke="#000" stroke-miterlimit="10" stroke-width=".25"/><line x1="-32" x2="160" y1="116" y2="116" fill="none" stroke="#000" stroke-miterlimit="10" stroke-width=".25"/><line x1="-32" x2="160" y1="120" y2="120" fill="none" stroke="#000" stroke-miterlimit="10" stroke-width=".25"/><line x1="-32" x2="160" y1="124" y2="124" fill="none" stroke="#000" stroke-miterlimit="10" stroke-width=".25"/><line x1="-32" x2="160" y1="128" y2="128" fill="none" stroke="#000" stroke-miterlimit="10" stroke-width=".25"/><line x1="-32" x2="160" y1="132" y2="132" fill="none" stroke="#000" stroke-miterlimit="10" stroke-width=".25"/><line x1="-32" x2="160" y1="136" y2="136" fill="none" stroke="#000" stroke-miterlimit="10" stroke-width=".25"/><line x1="-32" x2="160" y1="140" y2="140" fill="none" stroke="#000" stroke-miterlimit="10" stroke-width=".25"/><line x1="-32" x2="160" y1="144" y2="144" fill="none" stroke="#000" stroke-miterlimit="10" stroke-width=".25"/><line x1="-32" x2="160" y1="148" y2="148" fill="none" stroke="#000" stroke-miterlimit="10" stroke-width=".25"/><line x1="-32" x2="160" y1="152" y2="152" fill="none" stroke="#000" stroke-miterlimit="10" stroke-width=".25"/><line x1="-32" x2="160" y1="156" y2="156" fill="none" stroke="#000" stroke-miterlimit="10" stroke-width=".25"/></g><path d="M159.75-31.75v191.5h-191.5v-191.5H159.75 M160-32H-32v192h192V-32L160-32z"/></g></g><g><rect width="4" height="128" x="0" y="0" fill="#F44336" opacity=".3"/><rect width="4" height="128" x="124" y="0" fill="#F44336" opacity=".3"/><rect width="4" height="120" x="62" y="-58" fill="#F44336" opacity=".3" transform="matrix(-1.836970e-16 1 -1 -1.836970e-16 66 -62)"/><rect width="4" height="120" x="62" y="66" fill="#F44336" opacity=".3" transform="matrix(-1.836970e-16 1 -1 -1.836970e-16 190 62)"/></g></g></g></g></svg>