<svg xmlns="http://www.w3.org/2000/svg" xmlns:xlink="http://www.w3.org/1999/xlink" width="128" height="128" enable-background="new 0 0 128 128"><g id="Layer_2"><linearGradient id="SVGID_1_" x1="63.75" x2="63.75" y1="92.167" y2="124.836" gradientUnits="userSpaceOnUse"><stop offset=".275" stop-color="#757575"/><stop offset=".993" stop-color="#BDBDBD"/></linearGradient><rect width="18" height="40" x="54.75" y="84" fill="url(#SVGID_1_)"/><g opacity=".2"><path fill="#444" d="M69.75,87v34h-12V87H69.75 M72.75,84h-18v40h18V84L72.75,84z"/></g><g><linearGradient id="SVGID_2_" x1="-106.59" x2="-106.59" y1="56.711" y2="124.211" gradientUnits="userSpaceOnUse"><stop offset="0" stop-color="#FFC107"/><stop offset="1" stop-color="#FFD54F"/></linearGradient><path fill="url(#SVGID_2_)" d="M-50.59,123.88h-112c-2.21,0-4-1.79-4-4v-72c0-2.21,1.79-4,4-4h112c2.21,0,4,1.79,4,4v72 C-46.59,122.09-48.38,123.88-50.59,123.88z"/><g><linearGradient id="SVGID_3_" x1="-106.59" x2="-106.59" y1="44.665" y2="107.086" gradientUnits="userSpaceOnUse"><stop offset="0" stop-color="#FFE082"/><stop offset=".993" stop-color="#FFCA28"/></linearGradient><path fill="url(#SVGID_3_)" d="M-46.59,50.04v-2.16c0-2.21-1.79-4-4-4h-112c-2.21,0-4,1.79-4,4v2.02l59.91,46.13 L-46.59,50.04z"/></g><g><defs><path id="SVGID_5_" d="M-50.59,123.88h-112c-2.21,0-4-1.79-4-4v-72c0-2.21,1.79-4,4-4h112c2.21,0,4,1.79,4,4v72 C-46.59,122.09-48.38,123.88-50.59,123.88z"/></defs><clipPath id="SVGID_6_"><use overflow="visible" xlink:href="#SVGID_5_"/></clipPath><g clip-path="url(#SVGID_6_)"><line x1="-127.58" x2="-170.78" y1="80.64" y2="127.81" fill="none" stroke="#FFB300" stroke-miterlimit="10" stroke-width="3"/><line x1="-85.71" x2="-42.59" y1="80.53" y2="128" fill="none" stroke="#FFB300" stroke-miterlimit="10" stroke-width="3"/></g><polyline fill="none" stroke="#FFB300" stroke-miterlimit="10" stroke-width="3" points="-170.51 47.66 -106.68 96.02 -42.67 47.82" clip-path="url(#SVGID_6_)"/></g><g opacity=".2"><path fill="#444" d="M-50.59,46.88c0.55,0,1,0.45,1,1v72c0,0.55-0.45,1-1,1h-112c-0.55,0-1-0.45-1-1v-72 c0-0.55,0.45-1,1-1H-50.59 M-50.59,43.88h-112c-2.21,0-4,1.79-4,4v72c0,2.21,1.79,4,4,4h112c2.21,0,4-1.79,4-4v-72 C-46.59,45.67-48.38,43.88-50.59,43.88L-50.59,43.88z"/></g></g><g><linearGradient id="SVGID_7_" x1="76.094" x2="76.094" y1="23.5" y2="90.394" gradientUnits="userSpaceOnUse"><stop offset="0" stop-color="#64B5F6"/><stop offset=".664" stop-color="#2196F3"/></linearGradient><path fill="url(#SVGID_7_)" d="M123.95,95.96H28.24v-72h69.72c14.36,0,26,11.64,26,26V95.96z"/></g><g><g><linearGradient id="SVGID_8_" x1="26.388" x2="26.388" y1="23.75" y2="96" gradientUnits="userSpaceOnUse"><stop offset=".332" stop-color="#90CAF9"/><stop offset="1" stop-color="#42A5F5"/></linearGradient><path fill="url(#SVGID_8_)" d="M48.78,95.96H4V46.35c0-12.36,10.02-22.39,22.39-22.39h0c12.36,0,22.39,10.02,22.39,22.39 V95.96z"/></g><path fill="#1E88E5" d="M37.39,51.62h-22c-1.1,0-2-0.9-2-2v-4c0-1.1,0.9-2,2-2h22c1.1,0,2,0.9,2,2v4 C39.39,50.73,38.49,51.62,37.39,51.62z"/></g><g opacity=".2"><path fill="#444" d="M97.95,26.96c12.68,0,23,10.32,23,23v43H7V46.35c0-10.69,8.7-19.39,19.39-19.39 c0.49,0,1.01,0.02,1.6,0.07c0.08,0.01,0.16,0.01,0.24,0.01c0.24,0,0.47-0.03,0.7-0.08H97.95 M97.95,23.96H28.24v0.08 c-0.61-0.05-1.22-0.08-1.85-0.08h0C14.02,23.96,4,33.98,4,46.35v49.61h119.95v-46C123.95,35.6,112.31,23.96,97.95,23.96 L97.95,23.96z"/></g><g><linearGradient id="SVGID_9_" x1="75.361" x2="75.361" y1="15.5" y2="67.502" gradientTransform="matrix(0 1 -1 0 126 -6)" gradientUnits="userSpaceOnUse"><stop offset=".227" stop-color="#EF5350"/><stop offset=".783" stop-color="#E53935"/></linearGradient><path fill="url(#SVGID_9_)" d="M118.76,78.39V60.33c0-3.31-2.69-6-6-6H109c-0.18,0-0.36,0.01-0.53,0.03H65.91 c-1.37,0-2.49,1.11-2.49,2.49v5.02c0,1.37,1.11,2.49,2.49,2.49H103v14.04c0,3.31,2.69,6,6,6h3.76 C116.07,84.39,118.76,81.71,118.76,78.39z"/><g opacity=".2"><path fill="#444" d="M112.76,56.33c2.21,0,4,1.79,4,4v18.07c0,2.21-1.79,4-4,4H109c-2.21,0-4-1.79-4-4V64.35 c0-1.1-0.9-2-2-2H65.91c-0.27,0-0.49-0.22-0.49-0.49v-5.02c0-0.27,0.22-0.49,0.49-0.49h42.56c0.06,0,0.12,0,0.18-0.01 c0.12-0.01,0.24-0.02,0.36-0.02H112.76 M112.76,54.33H109c-0.18,0-0.36,0.01-0.53,0.03H65.91c-1.37,0-2.49,1.11-2.49,2.49v5.02 c0,1.37,1.11,2.49,2.49,2.49H103v14.04c0,3.31,2.69,6,6,6h3.76c3.31,0,6-2.69,6-6V60.33C118.76,57.01,116.07,54.33,112.76,54.33 L112.76,54.33z"/></g><radialGradient id="SVGID_10_" cx="63.854" cy="56.168" r="14.929" gradientUnits="userSpaceOnUse"><stop offset="0" stop-color="#ECEFF1"/><stop offset=".672" stop-color="#B0BEC5"/></radialGradient><circle cx="66.85" cy="59.42" r="9" fill="url(#SVGID_10_)"/><g opacity=".2"><path fill="#444" d="M66.85,52.42c3.86,0,7,3.14,7,7s-3.14,7-7,7s-7-3.14-7-7S62.99,52.42,66.85,52.42 M66.85,50.42 c-4.97,0-9,4.03-9,9s4.03,9,9,9c4.97,0,9-4.03,9-9S71.82,50.42,66.85,50.42L66.85,50.42z"/></g></g></g><g id="レイヤー_1" display="none"><g display="inline"><g opacity=".6"><circle cx="64" cy="64" r="28" fill="none" stroke="#000" stroke-miterlimit="10" stroke-width=".263" opacity=".61"/><line x1="84" x2="84" y1="0" y2="128" fill="none" stroke="#000" stroke-miterlimit="10" stroke-width=".25" opacity=".61"/><line x1="44" x2="44" y1="0" y2="128" fill="none" stroke="#000" stroke-miterlimit="10" stroke-width=".25" opacity=".61"/><line x1="64" x2="64" y1="0" y2="128" fill="none" stroke="#000" stroke-miterlimit="10" stroke-width=".25" opacity=".61"/><line x1="128" x2="0" y1="64" y2="64" fill="none" stroke="#000" stroke-miterlimit="10" stroke-width=".25" opacity=".61"/><line x1="128" x2="0" y1="44" y2="44" fill="none" stroke="#000" stroke-miterlimit="10" stroke-width=".25" opacity=".61"/><line x1="128" x2="0" y1="83.75" y2="83.75" fill="none" stroke="#000" stroke-miterlimit="10" stroke-width=".25" opacity=".61"/><line x1="128" x2="0" y1="128" y2="0" fill="none" stroke="#000" stroke-miterlimit="10" stroke-width=".25" opacity=".61"/><line x1="0" x2="128" y1="128" y2="0" fill="none" stroke="#000" stroke-miterlimit="10" stroke-width=".25" opacity=".61"/><g opacity=".61"><path d="M64,4.26c32.94,0,59.74,26.8,59.74,59.74S96.94,123.74,64,123.74S4.26,96.94,4.26,64S31.06,4.26,64,4.26 M64,4 C30.86,4,4,30.86,4,64s26.86,60,60,60s60-26.86,60-60S97.14,4,64,4L64,4z"/></g><path fill="none" stroke="#000" stroke-miterlimit="10" stroke-width=".258" d="M107.97,115.97H20.03 c-4.42,0-8.03-3.61-8.03-8.03V20.03c0-4.42,3.61-8.03,8.03-8.03h87.94c4.42,0,8.03,3.61,8.03,8.03v87.91 C116,112.36,112.39,115.97,107.97,115.97z" opacity=".61"/><path fill="none" stroke="#000" stroke-miterlimit="10" stroke-width=".263" d="M100,124H28c-4.4,0-8-3.6-8-8 V12c0-4.4,3.6-8,8-8h72c4.4,0,8,3.6,8,8v104C108,120.4,104.4,124,100,124z" opacity=".61"/><path fill="none" stroke="#000" stroke-miterlimit="10" stroke-width=".263" d="M113.77,108H14.23 C8.6,108,4,103.4,4,97.77V30.28c0-5.63,4.6-10.23,10.23-10.23h99.54c5.63,0,10.23,4.6,10.23,10.23v67.48 C124,103.4,119.4,108,113.77,108z" opacity=".61"/></g><g><g opacity=".2"><defs><rect id="SVGID_4_" width="128" height="128" x="0" y="0" opacity=".2"/></defs><clipPath id="SVGID_11_"><use overflow="visible" xlink:href="#SVGID_4_"/></clipPath><g clip-path="url(#SVGID_11_)"><g><line x1="-28" x2="-28" y1="160" y2="-32" fill="none" stroke="#000" stroke-miterlimit="10" stroke-width=".25"/><line x1="-24" x2="-24" y1="160" y2="-32" fill="none" stroke="#000" stroke-miterlimit="10" stroke-width=".25"/><line x1="-20" x2="-20" y1="160" y2="-32" fill="none" stroke="#000" stroke-miterlimit="10" stroke-width=".25"/><line x1="-16" x2="-16" y1="160" y2="-32" fill="none" stroke="#000" stroke-miterlimit="10" stroke-width=".25"/><line x1="-12" x2="-12" y1="160" y2="-32" fill="none" stroke="#000" stroke-miterlimit="10" stroke-width=".25"/><line x1="-8" x2="-8" y1="160" y2="-32" fill="none" stroke="#000" stroke-miterlimit="10" stroke-width=".25"/><line x1="-4" x2="-4" y1="160" y2="-32" fill="none" stroke="#000" stroke-miterlimit="10" stroke-width=".25"/><line x1="0" x2="0" y1="160" y2="-32" fill="none" stroke="#000" stroke-miterlimit="10" stroke-width=".25"/><line x1="4" x2="4" y1="160" y2="-32" fill="none" stroke="#000" stroke-miterlimit="10" stroke-width=".25"/><line x1="8" x2="8" y1="160" y2="-32" fill="none" stroke="#000" stroke-miterlimit="10" stroke-width=".25"/><line x1="12" x2="12" y1="160" y2="-32" fill="none" stroke="#000" stroke-miterlimit="10" stroke-width=".25"/><line x1="16" x2="16" y1="160" y2="-32" fill="none" stroke="#000" stroke-miterlimit="10" stroke-width=".25"/><line x1="20" x2="20" y1="160" y2="-32" fill="none" stroke="#000" stroke-miterlimit="10" stroke-width=".25"/><line x1="24" x2="24" y1="160" y2="-32" fill="none" stroke="#000" stroke-miterlimit="10" stroke-width=".25"/><line x1="28" x2="28" y1="160" y2="-32" fill="none" stroke="#000" stroke-miterlimit="10" stroke-width=".25"/><line x1="32" x2="32" y1="160" y2="-32" fill="none" stroke="#000" stroke-miterlimit="10" stroke-width=".25"/><line x1="36" x2="36" y1="160" y2="-32" fill="none" stroke="#000" stroke-miterlimit="10" stroke-width=".25"/><line x1="40" x2="40" y1="160" y2="-32" fill="none" stroke="#000" stroke-miterlimit="10" stroke-width=".25"/><line x1="44" x2="44" y1="160" y2="-32" fill="none" stroke="#000" stroke-miterlimit="10" stroke-width=".25"/><line x1="48" x2="48" y1="160" y2="-32" fill="none" stroke="#000" stroke-miterlimit="10" stroke-width=".25"/><line x1="52" x2="52" y1="160" y2="-32" fill="none" stroke="#000" stroke-miterlimit="10" stroke-width=".25"/><line x1="56" x2="56" y1="160" y2="-32" fill="none" stroke="#000" stroke-miterlimit="10" stroke-width=".25"/><line x1="60" x2="60" y1="160" y2="-32" fill="none" stroke="#000" stroke-miterlimit="10" stroke-width=".25"/><line x1="64" x2="64" y1="160" y2="-32" fill="none" stroke="#000" stroke-miterlimit="10" stroke-width=".25"/><line x1="68" x2="68" y1="160" y2="-32" fill="none" stroke="#000" stroke-miterlimit="10" stroke-width=".25"/><line x1="72" x2="72" y1="160" y2="-32" fill="none" stroke="#000" stroke-miterlimit="10" stroke-width=".25"/><line x1="76" x2="76" y1="160" y2="-32" fill="none" stroke="#000" stroke-miterlimit="10" stroke-width=".25"/><line x1="80" x2="80" y1="160" y2="-32" fill="none" stroke="#000" stroke-miterlimit="10" stroke-width=".25"/><line x1="84" x2="84" y1="160" y2="-32" fill="none" stroke="#000" stroke-miterlimit="10" stroke-width=".25"/><line x1="88" x2="88" y1="160" y2="-32" fill="none" stroke="#000" stroke-miterlimit="10" stroke-width=".25"/><line x1="92" x2="92" y1="160" y2="-32" fill="none" stroke="#000" stroke-miterlimit="10" stroke-width=".25"/><line x1="96" x2="96" y1="160" y2="-32" fill="none" stroke="#000" stroke-miterlimit="10" stroke-width=".25"/><line x1="100" x2="100" y1="160" y2="-32" fill="none" stroke="#000" stroke-miterlimit="10" stroke-width=".25"/><line x1="104" x2="104" y1="160" y2="-32" fill="none" stroke="#000" stroke-miterlimit="10" stroke-width=".25"/><line x1="108" x2="108" y1="160" y2="-32" fill="none" stroke="#000" stroke-miterlimit="10" stroke-width=".25"/><line x1="112" x2="112" y1="160" y2="-32" fill="none" stroke="#000" stroke-miterlimit="10" stroke-width=".25"/><line x1="116" x2="116" y1="160" y2="-32" fill="none" stroke="#000" stroke-miterlimit="10" stroke-width=".25"/><line x1="120" x2="120" y1="160" y2="-32" fill="none" stroke="#000" stroke-miterlimit="10" stroke-width=".25"/><line x1="124" x2="124" y1="160" y2="-32" fill="none" stroke="#000" stroke-miterlimit="10" stroke-width=".25"/><line x1="128" x2="128" y1="160" y2="-32" fill="none" stroke="#000" stroke-miterlimit="10" stroke-width=".25"/><line x1="132" x2="132" y1="160" y2="-32" fill="none" stroke="#000" stroke-miterlimit="10" stroke-width=".25"/><line x1="136" x2="136" y1="160" y2="-32" fill="none" stroke="#000" stroke-miterlimit="10" stroke-width=".25"/><line x1="137" x2="137" y1="166.05" y2="-25.95" fill="none" stroke="#000" stroke-miterlimit="10" stroke-width=".25"/><line x1="144" x2="144" y1="160" y2="-32" fill="none" stroke="#000" stroke-miterlimit="10" stroke-width=".25"/><line x1="148" x2="148" y1="160" y2="-32" fill="none" stroke="#000" stroke-miterlimit="10" stroke-width=".25"/><line x1="152" x2="152" y1="160" y2="-32" fill="none" stroke="#000" stroke-miterlimit="10" stroke-width=".25"/><line x1="156" x2="156" y1="160" y2="-32" fill="none" stroke="#000" stroke-miterlimit="10" stroke-width=".25"/></g><g><line x1="-32" x2="160" y1="-28" y2="-28" fill="none" stroke="#000" stroke-miterlimit="10" stroke-width=".25"/><line x1="-32" x2="160" y1="-24" y2="-24" fill="none" stroke="#000" stroke-miterlimit="10" stroke-width=".25"/><line x1="-32" x2="160" y1="-20" y2="-20" fill="none" stroke="#000" stroke-miterlimit="10" stroke-width=".25"/><line x1="-32" x2="160" y1="-16" y2="-16" fill="none" stroke="#000" stroke-miterlimit="10" stroke-width=".25"/><line x1="-32" x2="160" y1="-12" y2="-12" fill="none" stroke="#000" stroke-miterlimit="10" stroke-width=".25"/><line x1="-32" x2="160" y1="-8" y2="-8" fill="none" stroke="#000" stroke-miterlimit="10" stroke-width=".25"/><line x1="-32" x2="160" y1="-4" y2="-4" fill="none" stroke="#000" stroke-miterlimit="10" stroke-width=".25"/><line x1="-32" x2="160" y1="0" y2="0" fill="none" stroke="#000" stroke-miterlimit="10" stroke-width=".25"/><line x1="-32" x2="160" y1="4" y2="4" fill="none" stroke="#000" stroke-miterlimit="10" stroke-width=".25"/><line x1="-32" x2="160" y1="8" y2="8" fill="none" stroke="#000" stroke-miterlimit="10" stroke-width=".25"/><line x1="-32" x2="160" y1="12" y2="12" fill="none" stroke="#000" stroke-miterlimit="10" stroke-width=".25"/><line x1="-32" x2="160" y1="16" y2="16" fill="none" stroke="#000" stroke-miterlimit="10" stroke-width=".25"/><line x1="-32" x2="160" y1="20" y2="20" fill="none" stroke="#000" stroke-miterlimit="10" stroke-width=".25"/><line x1="-32" x2="160" y1="24" y2="24" fill="none" stroke="#000" stroke-miterlimit="10" stroke-width=".25"/><line x1="-32" x2="160" y1="28" y2="28" fill="none" stroke="#000" stroke-miterlimit="10" stroke-width=".25"/><line x1="-32" x2="160" y1="32" y2="32" fill="none" stroke="#000" stroke-miterlimit="10" stroke-width=".25"/><line x1="-32" x2="160" y1="36" y2="36" fill="none" stroke="#000" stroke-miterlimit="10" stroke-width=".25"/><line x1="-32" x2="160" y1="40" y2="40" fill="none" stroke="#000" stroke-miterlimit="10" stroke-width=".25"/><line x1="-32" x2="160" y1="44" y2="44" fill="none" stroke="#000" stroke-miterlimit="10" stroke-width=".25"/><line x1="-32" x2="160" y1="48" y2="48" fill="none" stroke="#000" stroke-miterlimit="10" stroke-width=".25"/><line x1="-32" x2="160" y1="52" y2="52" fill="none" stroke="#000" stroke-miterlimit="10" stroke-width=".25"/><line x1="-32" x2="160" y1="56" y2="56" fill="none" stroke="#000" stroke-miterlimit="10" stroke-width=".25"/><line x1="-32" x2="160" y1="60" y2="60" fill="none" stroke="#000" stroke-miterlimit="10" stroke-width=".25"/><line x1="-32" x2="160" y1="64" y2="64" fill="none" stroke="#000" stroke-miterlimit="10" stroke-width=".25"/><line x1="-32" x2="160" y1="68" y2="68" fill="none" stroke="#000" stroke-miterlimit="10" stroke-width=".25"/><line x1="-32" x2="160" y1="72" y2="72" fill="none" stroke="#000" stroke-miterlimit="10" stroke-width=".25"/><line x1="-32" x2="160" y1="76" y2="76" fill="none" stroke="#000" stroke-miterlimit="10" stroke-width=".25"/><line x1="-32" x2="160" y1="80" y2="80" fill="none" stroke="#000" stroke-miterlimit="10" stroke-width=".25"/><line x1="-32" x2="160" y1="84" y2="84" fill="none" stroke="#000" stroke-miterlimit="10" stroke-width=".25"/><line x1="-32" x2="160" y1="88" y2="88" fill="none" stroke="#000" stroke-miterlimit="10" stroke-width=".25"/><line x1="-32" x2="160" y1="92" y2="92" fill="none" stroke="#000" stroke-miterlimit="10" stroke-width=".25"/><line x1="-32" x2="160" y1="96" y2="96" fill="none" stroke="#000" stroke-miterlimit="10" stroke-width=".25"/><line x1="-32" x2="160" y1="100" y2="100" fill="none" stroke="#000" stroke-miterlimit="10" stroke-width=".25"/><line x1="-32" x2="160" y1="104" y2="104" fill="none" stroke="#000" stroke-miterlimit="10" stroke-width=".25"/><line x1="-32" x2="160" y1="108" y2="108" fill="none" stroke="#000" stroke-miterlimit="10" stroke-width=".25"/><line x1="-32" x2="160" y1="112" y2="112" fill="none" stroke="#000" stroke-miterlimit="10" stroke-width=".25"/><line x1="-32" x2="160" y1="116" y2="116" fill="none" stroke="#000" stroke-miterlimit="10" stroke-width=".25"/><line x1="-32" x2="160" y1="120" y2="120" fill="none" stroke="#000" stroke-miterlimit="10" stroke-width=".25"/><line x1="-32" x2="160" y1="124" y2="124" fill="none" stroke="#000" stroke-miterlimit="10" stroke-width=".25"/><line x1="-32" x2="160" y1="128" y2="128" fill="none" stroke="#000" stroke-miterlimit="10" stroke-width=".25"/><line x1="-32" x2="160" y1="132" y2="132" fill="none" stroke="#000" stroke-miterlimit="10" stroke-width=".25"/><line x1="-32" x2="160" y1="136" y2="136" fill="none" stroke="#000" stroke-miterlimit="10" stroke-width=".25"/><line x1="-32" x2="160" y1="140" y2="140" fill="none" stroke="#000" stroke-miterlimit="10" stroke-width=".25"/><line x1="-32" x2="160" y1="144" y2="144" fill="none" stroke="#000" stroke-miterlimit="10" stroke-width=".25"/><line x1="-32" x2="160" y1="148" y2="148" fill="none" stroke="#000" stroke-miterlimit="10" stroke-width=".25"/><line x1="-32" x2="160" y1="152" y2="152" fill="none" stroke="#000" stroke-miterlimit="10" stroke-width=".25"/><line x1="-32" x2="160" y1="156" y2="156" fill="none" stroke="#000" stroke-miterlimit="10" stroke-width=".25"/></g><path d="M159.75-31.75v191.5h-191.5v-191.5H159.75 M160-32H-32v192h192V-32L160-32z"/></g></g><g><rect width="4" height="128" x="0" y="0" fill="#EF4438" opacity=".3"/><rect width="4" height="128" x="124" y="0" fill="#EF4438" opacity=".3"/><rect width="4" height="120" x="62" y="-58" fill="#EF4438" opacity=".3" transform="matrix(-1.836970e-16 1 -1 -1.836970e-16 66 -62)"/><rect width="4" height="120" x="62" y="66" fill="#EF4438" opacity=".3" transform="matrix(-1.836970e-16 1 -1 -1.836970e-16 190 62)"/></g></g></g></g></svg>