<svg xmlns="http://www.w3.org/2000/svg" xmlns:xlink="http://www.w3.org/1999/xlink" width="128" height="128" enable-background="new 0 0 128 128"><radialGradient id="SVGID_1_" cx="63.333" cy="3.333" r="120.141" gradientUnits="userSpaceOnUse"><stop offset="0" stop-color="#EEE"/><stop offset=".317" stop-color="#EBEBEB"/><stop offset=".578" stop-color="#E1E1E1"/><stop offset=".819" stop-color="#CFCFCF"/><stop offset="1" stop-color="#BDBDBD"/></radialGradient><rect width="120" height="120" x="4" y="4" fill="url(#SVGID_1_)"/><g opacity=".2"><path fill="#424242" d="M121,7v114H7V7H121 M124,4H4v120h120V4L124,4z"/></g><radialGradient id="SVGID_2_" cx="63.667" cy="5.667" r="109.364" gradientUnits="userSpaceOnUse"><stop offset="0" stop-color="#616161"/><stop offset=".22" stop-color="#5E5E5E"/><stop offset=".407" stop-color="#535353"/><stop offset=".582" stop-color="#424242"/><stop offset=".749" stop-color="#292929"/><stop offset=".794" stop-color="#212121"/><stop offset="1" stop-color="#212121"/></radialGradient><path fill="url(#SVGID_2_)" d="M4,4v24h16v60c0,2.21,1.79,4,4,4h12c2.21,0,4-1.79,4-4V28h14v60c0,2.21,1.79,4,4,4h12 c2.21,0,4-1.79,4-4V28h14v60c0,2.21,1.79,4,4,4h12c2.21,0,4-1.79,4-4V28h16V4H4z"/><g opacity=".2"><path fill="#EEE" d="M121,7v18h-13c-1.66,0-3,1.34-3,3v60c0,0.55-0.45,1-1,1H92c-0.55,0-1-0.45-1-1V28c0-1.66-1.34-3-3-3 H74c-1.66,0-3,1.34-3,3v60c0,0.55-0.45,1-1,1H58c-0.55,0-1-0.45-1-1V28c0-1.66-1.34-3-3-3H40c-1.66,0-3,1.34-3,3v60 c0,0.55-0.45,1-1,1H24c-0.55,0-1-0.45-1-1V28c0-1.66-1.34-3-3-3H7V7H121 M124,4H4v24h16v60c0,2.21,1.79,4,4,4h12c2.21,0,4-1.79,4-4 V28h14v60c0,2.21,1.79,4,4,4h12c2.21,0,4-1.79,4-4V28h14v60c0,2.21,1.79,4,4,4h12c2.21,0,4-1.79,4-4V28h16V4L124,4z"/></g><rect width="14" height="56" x="40" y="28" fill="none"/><rect width="14" height="56" x="74" y="28" fill="none"/><rect width="114" height="8" x="7" y="20" fill="#424242"/><rect width="4" height="32" x="28" y="92" fill="#424242"/><rect width="4" height="32" x="62.06" y="92" fill="#424242"/><rect width="4" height="32" x="96" y="92" fill="#424242"/></svg>